<?xml version="1.0" encoding="utf-8"?>
<!-- Generator: Adobe Illustrator 18.0.0, SVG Export Plug-In . SVG Version: 6.00 Build 0)  -->
<!DOCTYPE svg PUBLIC "-//W3C//DTD SVG 1.1//EN" "http://www.w3.org/Graphics/SVG/1.1/DTD/svg11.dtd">
<svg version="1.1" id="Layer_1" xmlns="http://www.w3.org/2000/svg" xmlns:xlink="http://www.w3.org/1999/xlink" x="0px" y="0px"
	 viewBox="0 0 1200 900" enable-background="new 0 0 1200 900" xml:space="preserve">
<rect x="-0.8" fill="#051C28" width="1200.8" height="900"/>
<g>
	<g>
		<path fill="#FFFFFF" d="M340.8,669.1c-5.2,5.2-12.2,7.9-19.1,7.9c-17.7,0-26.9-12.4-27-26.5c-0.1-14,9-27.1,27-27.1
			c6.9,0,13.9,2.6,19.1,7.9l-2.8,2.4c-4.5-4.5-10.4-6.7-16.3-6.7c-15.3,0-23.2,10.8-23.1,23.4c0.1,12.3,7.9,22.9,23.1,22.9
			c5.9,0,11.9-2.3,16.4-6.7L340.8,669.1z"/>
		<path fill="#FFFFFF" d="M348.4,639.3l0.1,6.6c2.3-5,7.6-7,12.3-7c2.8-0.1,5.5,0.7,7.9,2.2l-1.6,3c-1.9-1.2-4.1-1.7-6.3-1.7
			c-6.9,0.1-12.2,5.6-12.2,12.4v21.6h-3.7v-37H348.4z"/>
		<path fill="#FFFFFF" d="M406,639.3l-22.6,52.5h-3.9l6.8-15.9l-14.8-36.6h4l8.6,21.9l4.3,10.7l4.3-10.8l9.3-21.8H406z"/>
		<path fill="#FFFFFF" d="M414.4,623.8v23.5c3-6,9-8.7,15.4-8.7c10.3,0,18.6,6.9,18.6,19.1c0,12.3-8.2,19.1-18.5,19.1
			c-6.3,0-12.4-3.1-15.4-8.8v8.2h-3.6v-52.5H414.4z M414.5,657.7c0,9.2,6.4,15.6,15.1,15.6c8.3,0,15.1-5.3,15.1-15.5
			c0-10.4-6.8-15.6-15.1-15.6C421.1,642.2,414.5,648.5,414.5,657.7z"/>
		<path fill="#FFFFFF" d="M453.3,657.9c0-11.8,8.4-19.3,18.8-19.3s18.8,7.5,18.8,19.3s-8.4,19-18.8,19S453.3,669.7,453.3,657.9z
			 M487.4,657.9c0-9.6-6.8-15.8-15.2-15.8c-8.4,0-15.2,6.2-15.2,15.8s6.8,15.4,15.2,15.4C480.5,673.3,487.4,667.5,487.4,657.9z"/>
		<path fill="#FFFFFF" d="M504.8,628.1v11.2h12.6v3.1h-12.6v22.6c0,5,1,8.5,6.8,8.5c1.8,0,3.8-0.6,5.7-1.5l1.3,3
			c-2.3,1.1-4.6,1.9-7,1.9c-7.9,0-10.4-4.7-10.4-11.9v-22.6h-7.9v-3.1h7.9v-10.8L504.8,628.1z"/>
		<path fill="#FFFFFF" d="M541.5,676.3v-52.5h9.8v52.5H541.5z"/>
		<path fill="#FFFFFF" d="M584.9,676.3V657c0-5.6-3.1-9.9-8.9-9.9c-5.6,0-9.4,4.7-9.4,10.3v18.9h-9.1v-37h8.2l0.6,5
			c3.8-3.7,7.5-5.5,12.1-5.5c8.7,0,15.7,6.5,15.7,18.1v19.4H584.9z"/>
		<path fill="#FFFFFF" d="M610.9,628.9v10.5h10.2v7.9h-10.3v16c0,3.5,2,5.3,4.8,5.3c1.4,0,3.1-0.5,4.4-1.1l2.5,7.8
			c-2.6,1-4.8,1.5-7.6,1.6c-8,0.3-13.3-4.3-13.3-13.5v-16h-6.9v-7.9h6.9v-9.5L610.9,628.9z"/>
		<path fill="#FFFFFF" d="M633.4,661.1c0.6,4.6,4.6,7.9,11,7.9c3.4,0,7.8-1.3,9.9-3.5l5.8,5.8c-3.9,4-10.3,6-15.9,6
			c-12.7,0-20.3-7.9-20.3-19.7c0-11.3,7.6-19.3,19.6-19.3c12.4,0,20.1,7.6,18.7,22.9H633.4z M653.5,653.5c-0.6-4.8-4.4-7.2-9.6-7.2
			c-5,0-9,2.4-10.3,7.2H653.5z"/>
		<path fill="#FFFFFF" d="M676,623.9v52.4H667v-52.4H676z"/>
		<path fill="#FFFFFF" d="M690.8,623.9v52.4h-9.1v-52.4H690.8z"/>
		<path fill="#FFFFFF" d="M706.5,628.9c0,7.1-10.8,7.1-10.8,0C695.7,621.8,706.5,621.8,706.5,628.9z M696.5,639.2v37.1h9.1v-37.1
			H696.5z"/>
		<path fill="#FFFFFF" d="M740.6,635.6l6.8,5.1l-4.1,5.3c2.8,3.2,3.9,6.9,3.9,11c0,4.6-1.7,11-7.8,13.8c6.1,3.1,7.6,7.5,7.6,12.2
			c0,10.2-7.8,16.5-18.5,16.5s-18.7-6.5-18.7-16.5h9.1c0,4.8,4.4,8,9.7,8s9.4-2.9,9.4-8s-4.8-7.4-9.4-7.4c-11.5,0-18.7-7-18.7-18.6
			c0-11.5,8.4-18.8,18.7-18.8c2.9,0,5.9,0.4,8.5,2.1L740.6,635.6z M718.8,656.9c0,6.4,4.4,10.3,9.7,10.3c5.3,0,9.6-3.9,9.6-10.3
			c0-6.4-4.3-10.4-9.6-10.4C723.1,646.5,718.8,650.5,718.8,656.9z"/>
		<path fill="#FFFFFF" d="M758.5,661.1c0.6,4.6,4.6,7.9,11,7.9c3.4,0,7.8-1.3,9.9-3.5l5.8,5.8c-3.9,4-10.3,6-15.9,6
			c-12.7,0-20.3-7.9-20.3-19.7c0-11.3,7.7-19.3,19.6-19.3c12.4,0,20.1,7.6,18.7,22.9H758.5z M778.6,653.5c-0.6-4.8-4.3-7.2-9.6-7.2
			c-4.9,0-9,2.4-10.3,7.2H778.6z"/>
		<path fill="#FFFFFF" d="M819.3,676.3V657c0-5.6-3.1-9.9-8.9-9.9c-5.6,0-9.4,4.7-9.4,10.3v18.9h-9.1v-37h8.2l0.6,5
			c3.8-3.7,7.5-5.5,12.1-5.5c8.7,0,15.7,6.5,15.7,18.1v19.4H819.3z"/>
		<path fill="#FFFFFF" d="M865.7,671.6c-4.3,4.2-8.8,5.8-14.2,5.8c-10.7,0-19.6-6.5-19.6-19.6s8.9-19.6,19.6-19.6
			c5.2,0,9.3,1.5,13.3,5.5l-5.8,6.1c-2.2-2-4.9-2.9-7.4-2.9c-6.1,0-10.6,4.5-10.6,10.9c0,7,4.8,10.8,10.5,10.8
			c2.9,0,5.8-0.8,8.1-3.1L865.7,671.6z"/>
		<path fill="#FFFFFF" d="M876.7,661.1c0.6,4.6,4.6,7.9,11,7.9c3.4,0,7.8-1.3,9.9-3.5l5.8,5.8c-3.9,4-10.3,6-15.9,6
			c-12.7,0-20.3-7.9-20.3-19.7c0-11.3,7.7-19.3,19.6-19.3c12.4,0,20.1,7.6,18.7,22.9H876.7z M896.8,653.5c-0.6-4.8-4.3-7.2-9.6-7.2
			c-4.9,0-9,2.4-10.3,7.2H896.8z"/>
	</g>
	<g>
		<g>
			<linearGradient id="SVGID_1_" gradientUnits="userSpaceOnUse" x1="468.8613" y1="392.7421" x2="679.1318" y2="392.7421">
				<stop  offset="0" style="stop-color:#CC9F00"/>
				<stop  offset="1" style="stop-color:#E0CC32"/>
			</linearGradient>
			<path fill="url(#SVGID_1_)" d="M626.6,484H521.4l-52.6-91.3l52.6-91.3h105.1l52.6,91.3L626.6,484z M523.2,481h101.7l50.8-88.3
				l-50.8-88.3H523.2l-50.8,88.3L523.2,481z"/>
		</g>
		<g>
			<linearGradient id="SVGID_2_" gradientUnits="userSpaceOnUse" x1="486.0889" y1="256.1322" x2="660.562" y2="256.1322">
				<stop  offset="0" style="stop-color:#CC9F00"/>
				<stop  offset="1" style="stop-color:#E0CC32"/>
			</linearGradient>
			<polygon fill="url(#SVGID_2_)" points="518.3,312.8 515.7,311.3 541,267.8 631.4,267.8 657.1,224.4 644.4,202.5 501.9,202.5 
				489.5,224.5 515.5,268.5 512.9,270 486.1,224.5 500.1,199.5 646.2,199.5 660.6,224.5 633.1,270.8 542.7,270.8 			"/>
		</g>
		<g>
			<linearGradient id="SVGID_3_" gradientUnits="userSpaceOnUse" x1="553.0679" y1="276.4442" x2="563.1577" y2="276.4442">
				<stop  offset="0" style="stop-color:#CC9F00"/>
				<stop  offset="1" style="stop-color:#E0CC32"/>
			</linearGradient>
			<polygon fill="url(#SVGID_3_)" points="560.5,284.3 553.1,269.9 555.7,268.6 563.2,282.9 			"/>
		</g>
		<g>
			<linearGradient id="SVGID_4_" gradientUnits="userSpaceOnUse" x1="570.3687" y1="276.4442" x2="580.4585" y2="276.4442">
				<stop  offset="0" style="stop-color:#CC9F00"/>
				<stop  offset="1" style="stop-color:#E0CC32"/>
			</linearGradient>
			<polygon fill="url(#SVGID_4_)" points="577.8,284.3 570.4,269.9 573,268.6 580.5,282.9 			"/>
		</g>
		<g>
			<linearGradient id="SVGID_5_" gradientUnits="userSpaceOnUse" x1="587.6694" y1="276.4442" x2="597.7593" y2="276.4442">
				<stop  offset="0" style="stop-color:#CC9F00"/>
				<stop  offset="1" style="stop-color:#E0CC32"/>
			</linearGradient>
			<polygon fill="url(#SVGID_5_)" points="595.1,284.3 587.7,269.9 590.3,268.6 597.8,282.9 			"/>
		</g>
		<g>
			<linearGradient id="SVGID_6_" gradientUnits="userSpaceOnUse" x1="604.9702" y1="276.4442" x2="615.0601" y2="276.4442">
				<stop  offset="0" style="stop-color:#CC9F00"/>
				<stop  offset="1" style="stop-color:#E0CC32"/>
			</linearGradient>
			<polygon fill="url(#SVGID_6_)" points="612.4,284.3 605,269.9 607.6,268.6 615.1,282.9 			"/>
		</g>
		<g>
			<linearGradient id="SVGID_7_" gradientUnits="userSpaceOnUse" x1="548.1958" y1="248.4105" x2="611.5215" y2="248.4105">
				<stop  offset="0" style="stop-color:#CC9F00"/>
				<stop  offset="1" style="stop-color:#E0CC32"/>
			</linearGradient>
			<polygon fill="url(#SVGID_7_)" points="550.8,255.9 548.2,254.4 556.1,240.9 611.5,240.9 611.5,243.9 557.8,243.9 			"/>
		</g>
		<g>
			<linearGradient id="SVGID_8_" gradientUnits="userSpaceOnUse" x1="526.1621" y1="241.046" x2="599.4268" y2="241.046">
				<stop  offset="0" style="stop-color:#CC9F00"/>
				<stop  offset="1" style="stop-color:#E0CC32"/>
			</linearGradient>
			<polygon fill="url(#SVGID_8_)" points="528.8,255.9 526.2,254.4 542.6,226.2 599.4,226.2 599.4,229.2 544.4,229.2 			"/>
		</g>
		<g>
			<linearGradient id="SVGID_9_" gradientUnits="userSpaceOnUse" x1="519.5674" y1="226.9684" x2="573.7998" y2="226.9684">
				<stop  offset="0" style="stop-color:#CC9F00"/>
				<stop  offset="1" style="stop-color:#E0CC32"/>
			</linearGradient>
			<polygon fill="url(#SVGID_9_)" points="522.2,240.8 519.6,239.3 534.5,213.2 573.8,213.2 573.8,216.2 536.2,216.2 			"/>
		</g>
		<g>
			<linearGradient id="SVGID_10_" gradientUnits="userSpaceOnUse" x1="634.6577" y1="215.7433" x2="649.2061" y2="215.7433">
				<stop  offset="0" style="stop-color:#CC9F00"/>
				<stop  offset="1" style="stop-color:#E0CC32"/>
			</linearGradient>
			<polygon fill="url(#SVGID_10_)" points="637.2,226.7 634.7,225.1 646.6,204.8 649.2,206.3 			"/>
		</g>
		<g>
			<linearGradient id="SVGID_11_" gradientUnits="userSpaceOnUse" x1="640.125" y1="224.4818" x2="654.6729" y2="224.4818">
				<stop  offset="0" style="stop-color:#CC9F00"/>
				<stop  offset="1" style="stop-color:#E0CC32"/>
			</linearGradient>
			<polygon fill="url(#SVGID_11_)" points="642.7,235.4 640.1,233.9 652.1,213.6 654.7,215.1 			"/>
		</g>
		<g>
			<linearGradient id="SVGID_12_" gradientUnits="userSpaceOnUse" x1="510.4268" y1="271.1454" x2="520.0972" y2="271.1454">
				<stop  offset="0" style="stop-color:#CC9F00"/>
				<stop  offset="1" style="stop-color:#E0CC32"/>
			</linearGradient>
			<path fill="url(#SVGID_12_)" d="M515.3,276c-2.7,0-4.8-2.2-4.8-4.8s2.2-4.8,4.8-4.8c2.7,0,4.8,2.2,4.8,4.8S517.9,276,515.3,276z
				 M515.3,271c-0.1,0-0.2,0.1-0.2,0.2c0,0.2,0.3,0.2,0.3,0C515.4,271.1,515.4,271,515.3,271z"/>
		</g>
		<g>
			<linearGradient id="SVGID_13_" gradientUnits="userSpaceOnUse" x1="515.0972" y1="241.9103" x2="524.7671" y2="241.9103">
				<stop  offset="0" style="stop-color:#CC9F00"/>
				<stop  offset="1" style="stop-color:#E0CC32"/>
			</linearGradient>
			<path fill="url(#SVGID_13_)" d="M519.9,246.7c-2.7,0-4.8-2.2-4.8-4.8c0-2.7,2.2-4.8,4.8-4.8s4.8,2.2,4.8,4.8
				C524.8,244.6,522.6,246.7,519.9,246.7z M519.9,241.7c-0.1,0-0.2,0.1-0.2,0.2c0,0.2,0.3,0.2,0.3,0
				C520.1,241.8,520,241.7,519.9,241.7z"/>
		</g>
		<g>
			<linearGradient id="SVGID_14_" gradientUnits="userSpaceOnUse" x1="521.5112" y1="257.0182" x2="531.1816" y2="257.0182">
				<stop  offset="0" style="stop-color:#CC9F00"/>
				<stop  offset="1" style="stop-color:#E0CC32"/>
			</linearGradient>
			<path fill="url(#SVGID_14_)" d="M526.3,261.9c-2.7,0-4.8-2.2-4.8-4.8c0-2.7,2.2-4.8,4.8-4.8c2.7,0,4.8,2.2,4.8,4.8
				C531.2,259.7,529,261.9,526.3,261.9z M526.3,256.9c-0.1,0-0.2,0.1-0.2,0.2c0,0.2,0.3,0.2,0.3,0
				C526.5,256.9,526.4,256.9,526.3,256.9z"/>
		</g>
		<g>
			<linearGradient id="SVGID_15_" gradientUnits="userSpaceOnUse" x1="543.6279" y1="256.8658" x2="553.2983" y2="256.8658">
				<stop  offset="0" style="stop-color:#CC9F00"/>
				<stop  offset="1" style="stop-color:#E0CC32"/>
			</linearGradient>
			<path fill="url(#SVGID_15_)" d="M548.5,261.7c-2.7,0-4.8-2.2-4.8-4.8c0-2.7,2.2-4.8,4.8-4.8c2.7,0,4.8,2.2,4.8,4.8
				C553.3,259.5,551.1,261.7,548.5,261.7z M548.5,256.7c-0.1,0-0.2,0.1-0.2,0.2c0,0.2,0.3,0.2,0.3,0
				C548.6,256.8,548.6,256.7,548.5,256.7z"/>
		</g>
		<g>
			<linearGradient id="SVGID_16_" gradientUnits="userSpaceOnUse" x1="557.8735" y1="285.9645" x2="567.5435" y2="285.9645">
				<stop  offset="0" style="stop-color:#CC9F00"/>
				<stop  offset="1" style="stop-color:#E0CC32"/>
			</linearGradient>
			<path fill="url(#SVGID_16_)" d="M562.7,290.8c-2.7,0-4.8-2.2-4.8-4.8c0-2.7,2.2-4.8,4.8-4.8s4.8,2.2,4.8,4.8
				C567.5,288.6,565.4,290.8,562.7,290.8z M562.7,285.8c-0.1,0-0.2,0.1-0.2,0.2c0,0.2,0.3,0.2,0.3,0
				C562.9,285.9,562.8,285.8,562.7,285.8z"/>
		</g>
		<g>
			<linearGradient id="SVGID_17_" gradientUnits="userSpaceOnUse" x1="574.7021" y1="285.6205" x2="584.3721" y2="285.6205">
				<stop  offset="0" style="stop-color:#CC9F00"/>
				<stop  offset="1" style="stop-color:#E0CC32"/>
			</linearGradient>
			<path fill="url(#SVGID_17_)" d="M579.5,290.5c-2.7,0-4.8-2.2-4.8-4.8s2.2-4.8,4.8-4.8s4.8,2.2,4.8,4.8S582.2,290.5,579.5,290.5z
				 M579.5,285.5c-0.1,0-0.2,0.1-0.2,0.2c0,0.2,0.3,0.2,0.3,0C579.7,285.5,579.6,285.5,579.5,285.5z"/>
		</g>
		<g>
			<linearGradient id="SVGID_18_" gradientUnits="userSpaceOnUse" x1="592.0195" y1="285.6205" x2="601.6899" y2="285.6205">
				<stop  offset="0" style="stop-color:#CC9F00"/>
				<stop  offset="1" style="stop-color:#E0CC32"/>
			</linearGradient>
			<path fill="url(#SVGID_18_)" d="M596.9,290.5c-2.7,0-4.8-2.2-4.8-4.8s2.2-4.8,4.8-4.8c2.7,0,4.8,2.2,4.8,4.8
				S599.5,290.5,596.9,290.5z M596.9,285.5c-0.1,0-0.2,0.1-0.2,0.2c0,0.2,0.3,0.2,0.3,0C597,285.5,596.9,285.5,596.9,285.5z"/>
		</g>
		<g>
			<linearGradient id="SVGID_19_" gradientUnits="userSpaceOnUse" x1="609.6206" y1="285.6205" x2="619.291" y2="285.6205">
				<stop  offset="0" style="stop-color:#CC9F00"/>
				<stop  offset="1" style="stop-color:#E0CC32"/>
			</linearGradient>
			<path fill="url(#SVGID_19_)" d="M614.5,290.5c-2.7,0-4.8-2.2-4.8-4.8s2.2-4.8,4.8-4.8c2.7,0,4.8,2.2,4.8,4.8
				S617.1,290.5,614.5,290.5z M614.5,285.5c-0.1,0-0.2,0.1-0.2,0.2c0,0.2,0.3,0.2,0.3,0C614.6,285.5,614.5,285.5,614.5,285.5z"/>
		</g>
		<g>
			<linearGradient id="SVGID_20_" gradientUnits="userSpaceOnUse" x1="608.7378" y1="242.4352" x2="618.4082" y2="242.4352">
				<stop  offset="0" style="stop-color:#CC9F00"/>
				<stop  offset="1" style="stop-color:#E0CC32"/>
			</linearGradient>
			<path fill="url(#SVGID_20_)" d="M613.6,247.3c-2.7,0-4.8-2.2-4.8-4.8c0-2.7,2.2-4.8,4.8-4.8c2.7,0,4.8,2.2,4.8,4.8
				C618.4,245.1,616.2,247.3,613.6,247.3z M613.6,242.3c-0.1,0-0.2,0.1-0.2,0.2c0,0.2,0.3,0.2,0.3,0
				C613.7,242.3,613.7,242.3,613.6,242.3z"/>
		</g>
		<g>
			<linearGradient id="SVGID_21_" gradientUnits="userSpaceOnUse" x1="596.7349" y1="227.7057" x2="606.4048" y2="227.7057">
				<stop  offset="0" style="stop-color:#CC9F00"/>
				<stop  offset="1" style="stop-color:#E0CC32"/>
			</linearGradient>
			<path fill="url(#SVGID_21_)" d="M601.6,232.5c-2.7,0-4.8-2.2-4.8-4.8c0-2.7,2.2-4.8,4.8-4.8s4.8,2.2,4.8,4.8
				C606.4,230.4,604.2,232.5,601.6,232.5z M601.6,227.5c-0.1,0-0.2,0.1-0.2,0.2c0,0.2,0.3,0.2,0.3,0
				C601.7,227.6,601.7,227.5,601.6,227.5z"/>
		</g>
		<g>
			<linearGradient id="SVGID_22_" gradientUnits="userSpaceOnUse" x1="629.8433" y1="227.3466" x2="639.5137" y2="227.3466">
				<stop  offset="0" style="stop-color:#CC9F00"/>
				<stop  offset="1" style="stop-color:#E0CC32"/>
			</linearGradient>
			<path fill="url(#SVGID_22_)" d="M634.7,232.2c-2.7,0-4.8-2.2-4.8-4.8s2.2-4.8,4.8-4.8c2.7,0,4.8,2.2,4.8,4.8
				S637.3,232.2,634.7,232.2z M634.7,227.2c-0.1,0-0.2,0.1-0.2,0.2c0,0.2,0.3,0.2,0.3,0C634.8,227.3,634.8,227.2,634.7,227.2z"/>
		</g>
		<g>
			<linearGradient id="SVGID_23_" gradientUnits="userSpaceOnUse" x1="635.4214" y1="236.5446" x2="645.0918" y2="236.5446">
				<stop  offset="0" style="stop-color:#CC9F00"/>
				<stop  offset="1" style="stop-color:#E0CC32"/>
			</linearGradient>
			<path fill="url(#SVGID_23_)" d="M640.3,241.4c-2.7,0-4.8-2.2-4.8-4.8c0-2.7,2.2-4.8,4.8-4.8c2.7,0,4.8,2.2,4.8,4.8
				C645.1,239.2,642.9,241.4,640.3,241.4z M640.3,236.4c-0.1,0-0.2,0.1-0.2,0.2c0,0.2,0.3,0.2,0.3,0
				C640.4,236.5,640.3,236.4,640.3,236.4z"/>
		</g>
		<g>
			<linearGradient id="SVGID_24_" gradientUnits="userSpaceOnUse" x1="571.2998" y1="214.653" x2="580.9702" y2="214.653">
				<stop  offset="0" style="stop-color:#CC9F00"/>
				<stop  offset="1" style="stop-color:#E0CC32"/>
			</linearGradient>
			<path fill="url(#SVGID_24_)" d="M576.1,219.5c-2.7,0-4.8-2.2-4.8-4.8c0-2.7,2.2-4.8,4.8-4.8c2.7,0,4.8,2.2,4.8,4.8
				C581,217.3,578.8,219.5,576.1,219.5z M576.1,214.5c-0.1,0-0.2,0.1-0.2,0.2c0,0.2,0.3,0.2,0.3,0
				C576.3,214.6,576.2,214.5,576.1,214.5z"/>
		</g>
		<g>
			<linearGradient id="SVGID_25_" gradientUnits="userSpaceOnUse" x1="487.4146" y1="529.3275" x2="661.8872" y2="529.3275">
				<stop  offset="0" style="stop-color:#CC9F00"/>
				<stop  offset="1" style="stop-color:#E0CC32"/>
			</linearGradient>
			<polygon fill="url(#SVGID_25_)" points="647.9,586 501.8,586 487.4,561 514.9,514.7 605.3,514.7 629.6,472.7 632.2,474.2 
				607,517.7 516.6,517.7 490.9,561 503.6,583 646.1,583 658.4,561 632.5,517 635.1,515.4 661.9,561 			"/>
		</g>
		<g>
			<linearGradient id="SVGID_26_" gradientUnits="userSpaceOnUse" x1="584.8188" y1="509.015" x2="594.9087" y2="509.015">
				<stop  offset="0" style="stop-color:#CC9F00"/>
				<stop  offset="1" style="stop-color:#E0CC32"/>
			</linearGradient>
			<polygon fill="url(#SVGID_26_)" points="592.2,516.9 584.8,502.5 587.5,501.1 594.9,515.5 			"/>
		</g>
		<g>
			<linearGradient id="SVGID_27_" gradientUnits="userSpaceOnUse" x1="567.5181" y1="509.015" x2="577.6074" y2="509.015">
				<stop  offset="0" style="stop-color:#CC9F00"/>
				<stop  offset="1" style="stop-color:#E0CC32"/>
			</linearGradient>
			<polygon fill="url(#SVGID_27_)" points="574.9,516.9 567.5,502.5 570.2,501.1 577.6,515.5 			"/>
		</g>
		<g>
			<linearGradient id="SVGID_28_" gradientUnits="userSpaceOnUse" x1="550.2173" y1="509.015" x2="560.3066" y2="509.015">
				<stop  offset="0" style="stop-color:#CC9F00"/>
				<stop  offset="1" style="stop-color:#E0CC32"/>
			</linearGradient>
			<polygon fill="url(#SVGID_28_)" points="557.6,516.9 550.2,502.5 552.9,501.1 560.3,515.5 			"/>
		</g>
		<g>
			<linearGradient id="SVGID_29_" gradientUnits="userSpaceOnUse" x1="532.9165" y1="509.015" x2="543.0059" y2="509.015">
				<stop  offset="0" style="stop-color:#CC9F00"/>
				<stop  offset="1" style="stop-color:#E0CC32"/>
			</linearGradient>
			<polygon fill="url(#SVGID_29_)" points="540.3,516.9 532.9,502.5 535.6,501.1 543,515.5 			"/>
		</g>
		<g>
			<linearGradient id="SVGID_30_" gradientUnits="userSpaceOnUse" x1="536.4546" y1="537.0487" x2="599.7808" y2="537.0487">
				<stop  offset="0" style="stop-color:#CC9F00"/>
				<stop  offset="1" style="stop-color:#E0CC32"/>
			</linearGradient>
			<polygon fill="url(#SVGID_30_)" points="591.9,544.5 536.5,544.5 536.5,541.5 590.2,541.5 597.2,529.6 599.8,531.1 			"/>
		</g>
		<g>
			<linearGradient id="SVGID_31_" gradientUnits="userSpaceOnUse" x1="548.5498" y1="544.4135" x2="621.8145" y2="544.4135">
				<stop  offset="0" style="stop-color:#CC9F00"/>
				<stop  offset="1" style="stop-color:#E0CC32"/>
			</linearGradient>
			<polygon fill="url(#SVGID_31_)" points="605.3,559.3 548.5,559.3 548.5,556.3 603.6,556.3 619.2,529.6 621.8,531.1 			"/>
		</g>
		<g>
			<linearGradient id="SVGID_32_" gradientUnits="userSpaceOnUse" x1="574.1763" y1="558.4911" x2="628.4087" y2="558.4911">
				<stop  offset="0" style="stop-color:#CC9F00"/>
				<stop  offset="1" style="stop-color:#E0CC32"/>
			</linearGradient>
			<polygon fill="url(#SVGID_32_)" points="613.5,572.3 574.2,572.3 574.2,569.3 611.7,569.3 625.8,544.7 628.4,546.2 			"/>
		</g>
		<g>
			<linearGradient id="SVGID_33_" gradientUnits="userSpaceOnUse" x1="498.7705" y1="569.7162" x2="513.3184" y2="569.7162">
				<stop  offset="0" style="stop-color:#CC9F00"/>
				<stop  offset="1" style="stop-color:#E0CC32"/>
			</linearGradient>
			<polygon fill="url(#SVGID_33_)" points="501.4,580.6 498.8,579.1 510.7,558.8 513.3,560.3 			"/>
		</g>
		<g>
			<linearGradient id="SVGID_34_" gradientUnits="userSpaceOnUse" x1="493.3032" y1="560.9779" x2="507.8516" y2="560.9779">
				<stop  offset="0" style="stop-color:#CC9F00"/>
				<stop  offset="1" style="stop-color:#E0CC32"/>
			</linearGradient>
			<polygon fill="url(#SVGID_34_)" points="495.9,571.9 493.3,570.4 505.3,550.1 507.9,551.6 			"/>
		</g>
		<g>
			<linearGradient id="SVGID_35_" gradientUnits="userSpaceOnUse" x1="627.8794" y1="514.3138" x2="637.5498" y2="514.3138">
				<stop  offset="0" style="stop-color:#CC9F00"/>
				<stop  offset="1" style="stop-color:#E0CC32"/>
			</linearGradient>
			<path fill="url(#SVGID_35_)" d="M632.7,519.1c-2.7,0-4.8-2.2-4.8-4.8c0-2.7,2.2-4.8,4.8-4.8c2.7,0,4.8,2.2,4.8,4.8
				C637.5,517,635.4,519.1,632.7,519.1z M632.7,514.1c-0.1,0-0.2,0.1-0.2,0.2c0,0.2,0.3,0.2,0.3,0
				C632.9,514.2,632.8,514.1,632.7,514.1z"/>
		</g>
		<g>
			<linearGradient id="SVGID_36_" gradientUnits="userSpaceOnUse" x1="623.209" y1="543.5492" x2="632.8794" y2="543.5492">
				<stop  offset="0" style="stop-color:#CC9F00"/>
				<stop  offset="1" style="stop-color:#E0CC32"/>
			</linearGradient>
			<path fill="url(#SVGID_36_)" d="M628,548.4c-2.7,0-4.8-2.2-4.8-4.8c0-2.7,2.2-4.8,4.8-4.8c2.7,0,4.8,2.2,4.8,4.8
				C632.9,546.2,630.7,548.4,628,548.4z M628,543.4c-0.1,0-0.2,0.1-0.2,0.2c0,0.2,0.3,0.2,0.3,0C628.2,543.5,628.1,543.4,628,543.4z
				"/>
		</g>
		<g>
			<linearGradient id="SVGID_37_" gradientUnits="userSpaceOnUse" x1="616.7949" y1="528.4413" x2="626.4653" y2="528.4413">
				<stop  offset="0" style="stop-color:#CC9F00"/>
				<stop  offset="1" style="stop-color:#E0CC32"/>
			</linearGradient>
			<path fill="url(#SVGID_37_)" d="M621.6,533.3c-2.7,0-4.8-2.2-4.8-4.8s2.2-4.8,4.8-4.8c2.7,0,4.8,2.2,4.8,4.8
				S624.3,533.3,621.6,533.3z M621.6,528.3c-0.1,0-0.2,0.1-0.2,0.2c0,0.2,0.3,0.2,0.3,0C621.8,528.4,621.7,528.3,621.6,528.3z"/>
		</g>
		<g>
			<linearGradient id="SVGID_38_" gradientUnits="userSpaceOnUse" x1="594.6777" y1="528.5936" x2="604.3481" y2="528.5936">
				<stop  offset="0" style="stop-color:#CC9F00"/>
				<stop  offset="1" style="stop-color:#E0CC32"/>
			</linearGradient>
			<path fill="url(#SVGID_38_)" d="M599.5,533.4c-2.7,0-4.8-2.2-4.8-4.8s2.2-4.8,4.8-4.8c2.7,0,4.8,2.2,4.8,4.8
				S602.2,533.4,599.5,533.4z M599.5,528.4c-0.1,0-0.2,0.1-0.2,0.2c0,0.2,0.3,0.2,0.3,0C599.7,528.5,599.6,528.4,599.5,528.4z"/>
		</g>
		<g>
			<linearGradient id="SVGID_39_" gradientUnits="userSpaceOnUse" x1="580.4326" y1="499.495" x2="590.103" y2="499.495">
				<stop  offset="0" style="stop-color:#CC9F00"/>
				<stop  offset="1" style="stop-color:#E0CC32"/>
			</linearGradient>
			<path fill="url(#SVGID_39_)" d="M585.3,504.3c-2.7,0-4.8-2.2-4.8-4.8s2.2-4.8,4.8-4.8c2.7,0,4.8,2.2,4.8,4.8
				S587.9,504.3,585.3,504.3z M585.3,499.3c-0.1,0-0.2,0.1-0.2,0.2c0,0.2,0.3,0.2,0.3,0C585.4,499.4,585.4,499.3,585.3,499.3z"/>
		</g>
		<g>
			<linearGradient id="SVGID_40_" gradientUnits="userSpaceOnUse" x1="563.604" y1="499.8387" x2="573.2744" y2="499.8387">
				<stop  offset="0" style="stop-color:#CC9F00"/>
				<stop  offset="1" style="stop-color:#E0CC32"/>
			</linearGradient>
			<path fill="url(#SVGID_40_)" d="M568.4,504.7c-2.7,0-4.8-2.2-4.8-4.8s2.2-4.8,4.8-4.8c2.7,0,4.8,2.2,4.8,4.8
				S571.1,504.7,568.4,504.7z M568.4,499.7c-0.1,0-0.2,0.1-0.2,0.2c0,0.2,0.3,0.2,0.3,0C568.6,499.7,568.5,499.7,568.4,499.7z"/>
		</g>
		<g>
			<linearGradient id="SVGID_41_" gradientUnits="userSpaceOnUse" x1="546.2866" y1="499.8387" x2="555.957" y2="499.8387">
				<stop  offset="0" style="stop-color:#CC9F00"/>
				<stop  offset="1" style="stop-color:#E0CC32"/>
			</linearGradient>
			<path fill="url(#SVGID_41_)" d="M551.1,504.7c-2.7,0-4.8-2.2-4.8-4.8s2.2-4.8,4.8-4.8c2.7,0,4.8,2.2,4.8,4.8
				S553.8,504.7,551.1,504.7z M551.1,499.7c-0.1,0-0.2,0.1-0.2,0.2c0,0.2,0.3,0.2,0.3,0C551.3,499.7,551.2,499.7,551.1,499.7z"/>
		</g>
		<g>
			<linearGradient id="SVGID_42_" gradientUnits="userSpaceOnUse" x1="528.6855" y1="499.8387" x2="538.356" y2="499.8387">
				<stop  offset="0" style="stop-color:#CC9F00"/>
				<stop  offset="1" style="stop-color:#E0CC32"/>
			</linearGradient>
			<path fill="url(#SVGID_42_)" d="M533.5,504.7c-2.7,0-4.8-2.2-4.8-4.8s2.2-4.8,4.8-4.8c2.7,0,4.8,2.2,4.8,4.8
				S536.2,504.7,533.5,504.7z M533.5,499.7c-0.1,0-0.2,0.1-0.2,0.2c0,0.2,0.3,0.2,0.3,0C533.7,499.7,533.6,499.7,533.5,499.7z"/>
		</g>
		<g>
			<linearGradient id="SVGID_43_" gradientUnits="userSpaceOnUse" x1="529.5679" y1="543.0243" x2="539.2383" y2="543.0243">
				<stop  offset="0" style="stop-color:#CC9F00"/>
				<stop  offset="1" style="stop-color:#E0CC32"/>
			</linearGradient>
			<path fill="url(#SVGID_43_)" d="M534.4,547.9c-2.7,0-4.8-2.2-4.8-4.8s2.2-4.8,4.8-4.8c2.7,0,4.8,2.2,4.8,4.8
				S537.1,547.9,534.4,547.9z M534.4,542.9c-0.1,0-0.2,0.1-0.2,0.2c0,0.2,0.3,0.2,0.3,0C534.6,542.9,534.5,542.9,534.4,542.9z"/>
		</g>
		<g>
			<linearGradient id="SVGID_44_" gradientUnits="userSpaceOnUse" x1="541.5713" y1="557.7538" x2="551.2417" y2="557.7538">
				<stop  offset="0" style="stop-color:#CC9F00"/>
				<stop  offset="1" style="stop-color:#E0CC32"/>
			</linearGradient>
			<path fill="url(#SVGID_44_)" d="M546.4,562.6c-2.7,0-4.8-2.2-4.8-4.8s2.2-4.8,4.8-4.8c2.7,0,4.8,2.2,4.8,4.8
				S549.1,562.6,546.4,562.6z M546.4,557.6c-0.1,0-0.2,0.1-0.2,0.2c0,0.2,0.3,0.2,0.3,0C546.6,557.7,546.5,557.6,546.4,557.6z"/>
		</g>
		<g>
			<linearGradient id="SVGID_45_" gradientUnits="userSpaceOnUse" x1="508.4629" y1="558.1127" x2="518.1333" y2="558.1127">
				<stop  offset="0" style="stop-color:#CC9F00"/>
				<stop  offset="1" style="stop-color:#E0CC32"/>
			</linearGradient>
			<path fill="url(#SVGID_45_)" d="M513.3,562.9c-2.7,0-4.8-2.2-4.8-4.8c0-2.7,2.2-4.8,4.8-4.8c2.7,0,4.8,2.2,4.8,4.8
				C518.1,560.8,516,562.9,513.3,562.9z M513.3,557.9c-0.1,0-0.2,0.1-0.2,0.2c0,0.2,0.3,0.2,0.3,0
				C513.5,558,513.4,557.9,513.3,557.9z"/>
		</g>
		<g>
			<linearGradient id="SVGID_46_" gradientUnits="userSpaceOnUse" x1="502.8843" y1="548.9149" x2="512.5547" y2="548.9149">
				<stop  offset="0" style="stop-color:#CC9F00"/>
				<stop  offset="1" style="stop-color:#E0CC32"/>
			</linearGradient>
			<path fill="url(#SVGID_46_)" d="M507.7,553.7c-2.7,0-4.8-2.2-4.8-4.8s2.2-4.8,4.8-4.8c2.7,0,4.8,2.2,4.8,4.8
				S510.4,553.7,507.7,553.7z M507.7,548.7c-0.1,0-0.2,0.1-0.2,0.2c0,0.2,0.3,0.2,0.3,0C507.9,548.8,507.8,548.7,507.7,548.7z"/>
		</g>
		<g>
			<linearGradient id="SVGID_47_" gradientUnits="userSpaceOnUse" x1="567.0059" y1="570.8065" x2="576.6763" y2="570.8065">
				<stop  offset="0" style="stop-color:#CC9F00"/>
				<stop  offset="1" style="stop-color:#E0CC32"/>
			</linearGradient>
			<path fill="url(#SVGID_47_)" d="M571.8,575.6c-2.7,0-4.8-2.2-4.8-4.8s2.2-4.8,4.8-4.8c2.7,0,4.8,2.2,4.8,4.8
				S574.5,575.6,571.8,575.6z M571.8,570.6c-0.1,0-0.2,0.1-0.2,0.2c0,0.2,0.3,0.2,0.3,0C572,570.7,571.9,570.6,571.8,570.6z"/>
		</g>
		<g>
			<linearGradient id="SVGID_48_" gradientUnits="userSpaceOnUse" x1="370.1831" y1="318.7653" x2="498.2344" y2="318.7653">
				<stop  offset="0" style="stop-color:#CC9F00"/>
				<stop  offset="1" style="stop-color:#E0CC32"/>
			</linearGradient>
			<polygon fill="url(#SVGID_48_)" points="474.9,403.2 449.7,359.6 494.8,281.2 470,237.4 444.7,237.4 373.7,361 386.6,382.6 
				437.6,382.1 437.7,385.1 384.9,385.6 370.2,361 370.6,360.3 443,234.4 471.8,234.4 498.2,281.2 453.2,359.6 477.5,401.7 			"/>
		</g>
		<g>
			<linearGradient id="SVGID_49_" gradientUnits="userSpaceOnUse" x1="457.6489" y1="349.088" x2="473.9419" y2="349.088">
				<stop  offset="0" style="stop-color:#CC9F00"/>
				<stop  offset="1" style="stop-color:#E0CC32"/>
			</linearGradient>
			<polygon fill="url(#SVGID_49_)" points="473.8,350.9 457.6,350.2 457.8,347.2 473.9,348 			"/>
		</g>
		<g>
			<linearGradient id="SVGID_50_" gradientUnits="userSpaceOnUse" x1="466.271" y1="334.0887" x2="482.5645" y2="334.0887">
				<stop  offset="0" style="stop-color:#CC9F00"/>
				<stop  offset="1" style="stop-color:#E0CC32"/>
			</linearGradient>
			<polygon fill="url(#SVGID_50_)" points="482.4,335.9 466.3,335.2 466.4,332.2 482.6,333 			"/>
		</g>
		<g>
			<linearGradient id="SVGID_51_" gradientUnits="userSpaceOnUse" x1="474.8931" y1="319.0897" x2="491.1865" y2="319.0897">
				<stop  offset="0" style="stop-color:#CC9F00"/>
				<stop  offset="1" style="stop-color:#E0CC32"/>
			</linearGradient>
			<polygon fill="url(#SVGID_51_)" points="491.1,321 474.9,320.2 475,317.2 491.2,318 			"/>
		</g>
		<g>
			<linearGradient id="SVGID_52_" gradientUnits="userSpaceOnUse" x1="483.5151" y1="304.0905" x2="499.8086" y2="304.0905">
				<stop  offset="0" style="stop-color:#CC9F00"/>
				<stop  offset="1" style="stop-color:#E0CC32"/>
			</linearGradient>
			<polygon fill="url(#SVGID_52_)" points="499.7,306 483.5,305.2 483.6,302.2 499.8,303 			"/>
		</g>
		<g>
			<linearGradient id="SVGID_53_" gradientUnits="userSpaceOnUse" x1="433.9849" y1="315.8864" x2="464.228" y2="315.8864">
				<stop  offset="0" style="stop-color:#CC9F00"/>
				<stop  offset="1" style="stop-color:#E0CC32"/>
			</linearGradient>
			<polygon fill="url(#SVGID_53_)" points="441.7,346.7 434,333.2 461.6,285.1 464.2,286.6 437.4,333.2 444.3,345.2 			"/>
		</g>
		<g>
			<linearGradient id="SVGID_54_" gradientUnits="userSpaceOnUse" x1="414.5308" y1="327.0101" x2="445.4307" y2="327.0101">
				<stop  offset="0" style="stop-color:#CC9F00"/>
				<stop  offset="1" style="stop-color:#E0CC32"/>
			</linearGradient>
			<polygon fill="url(#SVGID_54_)" points="430.7,365.8 414.5,337.5 442.8,288.2 445.4,289.7 418,337.5 433.3,364.3 			"/>
		</g>
		<g>
			<linearGradient id="SVGID_55_" gradientUnits="userSpaceOnUse" x1="399.1509" y1="333.9686" x2="421.3428" y2="333.9686">
				<stop  offset="0" style="stop-color:#CC9F00"/>
				<stop  offset="1" style="stop-color:#E0CC32"/>
			</linearGradient>
			<polygon fill="url(#SVGID_55_)" points="414.4,364 399.2,338 418.7,303.9 421.3,305.4 402.6,338 417,362.5 			"/>
		</g>
		<g>
			<linearGradient id="SVGID_56_" gradientUnits="userSpaceOnUse" x1="447.8057" y1="246.1683" x2="462.0791" y2="246.1683">
				<stop  offset="0" style="stop-color:#CC9F00"/>
				<stop  offset="1" style="stop-color:#E0CC32"/>
			</linearGradient>
			<polygon fill="url(#SVGID_56_)" points="459.5,257.2 447.8,236.7 450.4,235.2 462.1,255.7 			"/>
		</g>
		<g>
			<linearGradient id="SVGID_57_" gradientUnits="userSpaceOnUse" x1="458.1064" y1="245.7836" x2="472.3799" y2="245.7836">
				<stop  offset="0" style="stop-color:#CC9F00"/>
				<stop  offset="1" style="stop-color:#E0CC32"/>
			</linearGradient>
			<polygon fill="url(#SVGID_57_)" points="469.8,256.8 458.1,236.3 460.7,234.8 472.4,255.3 			"/>
		</g>
		<g>
			<linearGradient id="SVGID_58_" gradientUnits="userSpaceOnUse" x1="435.0086" y1="383.5975" x2="444.6831" y2="383.5975">
				<stop  offset="0" style="stop-color:#CC9F00"/>
				<stop  offset="1" style="stop-color:#E0CC32"/>
			</linearGradient>
			<path fill="url(#SVGID_58_)" d="M439.8,388.4c-0.8,0-1.7-0.2-2.4-0.6c-1.1-0.6-1.9-1.7-2.3-2.9c-0.3-1.2-0.2-2.6,0.5-3.7
				c0.9-1.5,2.5-2.4,4.2-2.4c0.8,0,1.7,0.2,2.4,0.6c1.1,0.6,1.9,1.7,2.3,2.9s0.2,2.6-0.5,3.7C443.2,387.5,441.6,388.4,439.8,388.4z
				 M439.8,383.4c-0.1,0-0.1,0.1-0.1,0.1c0,0.1,0,0.2,0.1,0.2c0.2,0,0.2-0.1,0.2-0.1C440,383.6,440,383.5,439.8,383.4L439.8,383.4z"
				/>
		</g>
		<g>
			<linearGradient id="SVGID_59_" gradientUnits="userSpaceOnUse" x1="411.9902" y1="364.9786" x2="421.6647" y2="364.9786">
				<stop  offset="0" style="stop-color:#CC9F00"/>
				<stop  offset="1" style="stop-color:#E0CC32"/>
			</linearGradient>
			<path fill="url(#SVGID_59_)" d="M416.8,369.8c-0.8,0-1.7-0.2-2.4-0.6c-1.1-0.6-1.9-1.7-2.3-2.9c-0.3-1.2-0.2-2.6,0.5-3.7
				c0.9-1.5,2.5-2.4,4.2-2.4c0.8,0,1.7,0.2,2.4,0.6c1.1,0.6,1.9,1.7,2.3,2.9c0.3,1.2,0.2,2.6-0.5,3.7
				C420.2,368.9,418.6,369.8,416.8,369.8z M416.8,364.8c-0.1,0-0.1,0.1-0.1,0.1c0,0.1,0,0.2,0.1,0.2c0.2,0,0.2-0.1,0.2-0.1
				C417,365,417,364.9,416.8,364.8L416.8,364.8z"/>
		</g>
		<g>
			<linearGradient id="SVGID_60_" gradientUnits="userSpaceOnUse" x1="428.285" y1="366.9469" x2="437.9592" y2="366.9469">
				<stop  offset="0" style="stop-color:#CC9F00"/>
				<stop  offset="1" style="stop-color:#E0CC32"/>
			</linearGradient>
			<path fill="url(#SVGID_60_)" d="M433.1,371.8c-0.8,0-1.7-0.2-2.4-0.6c-1.1-0.6-1.9-1.7-2.3-2.9c-0.3-1.2-0.2-2.6,0.5-3.7
				c0.9-1.5,2.5-2.4,4.2-2.4c0.8,0,1.7,0.2,2.4,0.6c1.1,0.6,1.9,1.7,2.3,2.9c0.3,1.2,0.2,2.5-0.5,3.7
				C436.5,370.9,434.8,371.8,433.1,371.8z M433.1,366.8c-0.1,0-0.1,0.1-0.1,0.1c0,0.1,0,0.2,0.1,0.2c0.2,0,0.2-0.1,0.2-0.1
				C433.3,367,433.3,366.8,433.1,366.8L433.1,366.8z"/>
		</g>
		<g>
			<linearGradient id="SVGID_61_" gradientUnits="userSpaceOnUse" x1="439.1753" y1="347.6964" x2="448.8465" y2="347.6964">
				<stop  offset="0" style="stop-color:#CC9F00"/>
				<stop  offset="1" style="stop-color:#E0CC32"/>
			</linearGradient>
			<path fill="url(#SVGID_61_)" d="M444,352.5c-0.8,0-1.7-0.2-2.4-0.6c-1.1-0.6-1.9-1.7-2.3-2.9c-0.3-1.2-0.2-2.6,0.5-3.7
				c0.9-1.5,2.5-2.4,4.2-2.4c0.8,0,1.7,0.2,2.4,0.6c2.3,1.3,3.1,4.3,1.8,6.6C447.3,351.6,445.7,352.5,444,352.5z M444,347.5
				c-0.1,0-0.1,0.1-0.1,0.1c0,0.1,0,0.2,0.1,0.2c0.2,0,0.2-0.1,0.2-0.1C444.2,347.7,444.2,347.6,444,347.5L444,347.5z"/>
		</g>
		<g>
			<linearGradient id="SVGID_62_" gradientUnits="userSpaceOnUse" x1="471.5055" y1="349.8483" x2="481.1768" y2="349.8483">
				<stop  offset="0" style="stop-color:#CC9F00"/>
				<stop  offset="1" style="stop-color:#E0CC32"/>
			</linearGradient>
			<path fill="url(#SVGID_62_)" d="M476.3,354.7c-0.8,0-1.7-0.2-2.4-0.6c-2.3-1.3-3.1-4.3-1.8-6.6c0.9-1.5,2.5-2.4,4.2-2.4
				c0.8,0,1.7,0.2,2.4,0.6c1.1,0.6,1.9,1.7,2.3,2.9c0.3,1.2,0.2,2.6-0.5,3.7C479.7,353.8,478.1,354.7,476.3,354.7z M476.3,349.7
				c-0.1,0-0.1,0.1-0.1,0.1c0,0.1,0,0.2,0.1,0.2c0.2,0,0.2-0.1,0.2-0.1C476.5,349.9,476.5,349.8,476.3,349.7L476.3,349.7z"/>
		</g>
		<g>
			<linearGradient id="SVGID_63_" gradientUnits="userSpaceOnUse" x1="479.5906" y1="335.0868" x2="489.2653" y2="335.0868">
				<stop  offset="0" style="stop-color:#CC9F00"/>
				<stop  offset="1" style="stop-color:#E0CC32"/>
			</linearGradient>
			<path fill="url(#SVGID_63_)" d="M484.4,339.9c-0.8,0-1.7-0.2-2.4-0.6c-1.1-0.6-1.9-1.7-2.3-2.9c-0.3-1.2-0.2-2.5,0.5-3.7
				c0.9-1.5,2.5-2.4,4.2-2.4c0.8,0,1.7,0.2,2.4,0.6c1.1,0.6,1.9,1.7,2.3,2.9c0.3,1.2,0.2,2.6-0.5,3.7
				C487.8,339,486.2,339.9,484.4,339.9z M484.4,334.9c-0.1,0-0.1,0.1-0.1,0.1c0,0.1,0,0.2,0.1,0.2c0.2,0,0.2-0.1,0.2-0.1
				C484.6,335.1,484.6,335,484.4,334.9L484.4,334.9z"/>
		</g>
		<g>
			<linearGradient id="SVGID_64_" gradientUnits="userSpaceOnUse" x1="488.2212" y1="320.0734" x2="497.8957" y2="320.0734">
				<stop  offset="0" style="stop-color:#CC9F00"/>
				<stop  offset="1" style="stop-color:#E0CC32"/>
			</linearGradient>
			<path fill="url(#SVGID_64_)" d="M493.1,324.9c-0.8,0-1.7-0.2-2.4-0.6c-1.1-0.6-1.9-1.7-2.3-2.9s-0.2-2.6,0.5-3.7
				c0.9-1.5,2.5-2.4,4.2-2.4c0.8,0,1.7,0.2,2.4,0.6c1.1,0.6,1.9,1.7,2.3,2.9c0.3,1.2,0.2,2.6-0.5,3.7
				C496.4,324,494.8,324.9,493.1,324.9z M493.1,319.9c-0.1,0-0.1,0.1-0.1,0.1c0,0.1,0,0.2,0.1,0.2c0.2,0,0.2-0.1,0.2-0.1
				C493.2,320.1,493.2,320,493.1,319.9L493.1,319.9z"/>
		</g>
		<g>
			<linearGradient id="SVGID_65_" gradientUnits="userSpaceOnUse" x1="496.993" y1="304.8138" x2="506.6677" y2="304.8138">
				<stop  offset="0" style="stop-color:#CC9F00"/>
				<stop  offset="1" style="stop-color:#E0CC32"/>
			</linearGradient>
			<path fill="url(#SVGID_65_)" d="M501.8,309.6c-0.8,0-1.7-0.2-2.4-0.6c-1.1-0.6-1.9-1.7-2.3-2.9c-0.3-1.2-0.2-2.6,0.5-3.7
				c0.9-1.5,2.5-2.4,4.2-2.4c0.8,0,1.7,0.2,2.4,0.6c1.1,0.6,1.9,1.7,2.3,2.9c0.3,1.2,0.2,2.5-0.5,3.7
				C505.2,308.7,503.6,309.6,501.8,309.6z M501.8,304.6c-0.1,0-0.1,0.1-0.1,0.1c0,0.1,0,0.2,0.1,0.2c0.2,0,0.2-0.1,0.2-0.1
				C502,304.8,502,304.7,501.8,304.6L501.8,304.6z"/>
		</g>
		<g>
			<linearGradient id="SVGID_66_" gradientUnits="userSpaceOnUse" x1="459.1131" y1="284.0565" x2="468.7876" y2="284.0565">
				<stop  offset="0" style="stop-color:#CC9F00"/>
				<stop  offset="1" style="stop-color:#E0CC32"/>
			</linearGradient>
			<path fill="url(#SVGID_66_)" d="M463.9,288.9c-0.8,0-1.7-0.2-2.4-0.6c-1.1-0.6-1.9-1.7-2.3-2.9c-0.3-1.2-0.2-2.5,0.5-3.7
				c0.9-1.5,2.5-2.4,4.2-2.4c0.8,0,1.7,0.2,2.4,0.6c1.1,0.6,1.9,1.7,2.3,2.9s0.2,2.6-0.5,3.7C467.3,288,465.7,288.9,463.9,288.9z
				 M463.9,283.9c-0.1,0-0.1,0.1-0.1,0.1c0,0.1,0,0.2,0.1,0.2c0.2,0,0.2-0.1,0.2-0.1C464.1,284.1,464.1,284,463.9,283.9L463.9,283.9
				z"/>
		</g>
		<g>
			<linearGradient id="SVGID_67_" gradientUnits="userSpaceOnUse" x1="440.3611" y1="287.1224" x2="450.0357" y2="287.1224">
				<stop  offset="0" style="stop-color:#CC9F00"/>
				<stop  offset="1" style="stop-color:#E0CC32"/>
			</linearGradient>
			<path fill="url(#SVGID_67_)" d="M445.2,292c-0.8,0-1.7-0.2-2.4-0.6c-1.1-0.6-1.9-1.7-2.3-2.9c-0.3-1.2-0.2-2.5,0.5-3.7
				c0.9-1.5,2.5-2.4,4.2-2.4c0.8,0,1.7,0.2,2.4,0.6c1.1,0.6,1.9,1.7,2.3,2.9s0.2,2.6-0.5,3.7C448.5,291,446.9,292,445.2,292z
				 M445.2,287c-0.1,0-0.1,0.1-0.1,0.1c0,0.1,0,0.2,0.1,0.2c0.2,0,0.2-0.1,0.2-0.1C445.4,287.1,445.3,287,445.2,287L445.2,287z"/>
		</g>
		<g>
			<linearGradient id="SVGID_68_" gradientUnits="userSpaceOnUse" x1="456.5501" y1="258.2396" x2="466.2243" y2="258.2396">
				<stop  offset="0" style="stop-color:#CC9F00"/>
				<stop  offset="1" style="stop-color:#E0CC32"/>
			</linearGradient>
			<path fill="url(#SVGID_68_)" d="M461.4,263.1c-0.8,0-1.7-0.2-2.4-0.6c-1.1-0.6-1.9-1.7-2.3-2.9c-0.3-1.2-0.2-2.6,0.5-3.7
				c0.9-1.5,2.5-2.4,4.2-2.4c0.8,0,1.7,0.2,2.4,0.6c1.1,0.6,1.9,1.7,2.3,2.9c0.3,1.2,0.2,2.5-0.5,3.7
				C464.7,262.1,463.1,263.1,461.4,263.1z M461.4,258.1c-0.1,0-0.1,0.1-0.1,0.1c0,0.1,0,0.2,0.1,0.2c0.2,0,0.2-0.1,0.2-0.1
				C461.6,258.3,461.5,258.1,461.4,258.1L461.4,258.1z"/>
		</g>
		<g>
			<linearGradient id="SVGID_69_" gradientUnits="userSpaceOnUse" x1="467.3045" y1="257.9872" x2="476.9787" y2="257.9872">
				<stop  offset="0" style="stop-color:#CC9F00"/>
				<stop  offset="1" style="stop-color:#E0CC32"/>
			</linearGradient>
			<path fill="url(#SVGID_69_)" d="M472.1,262.8c-0.8,0-1.7-0.2-2.4-0.6c-1.1-0.6-1.9-1.7-2.3-2.9c-0.3-1.2-0.2-2.5,0.5-3.7
				c0.9-1.5,2.5-2.4,4.2-2.4c0.8,0,1.7,0.2,2.4,0.6c1.1,0.6,1.9,1.7,2.3,2.9c0.3,1.2,0.2,2.6-0.5,3.7
				C475.5,261.9,473.9,262.8,472.1,262.8z M472.1,257.8c-0.1,0-0.1,0.1-0.1,0.1c0,0.1,0,0.2,0.1,0.2c0.2,0,0.2-0.1,0.2-0.1
				C472.3,258,472.3,257.9,472.1,257.8L472.1,257.8z"/>
		</g>
		<g>
			<linearGradient id="SVGID_70_" gradientUnits="userSpaceOnUse" x1="416.369" y1="302.6683" x2="426.0436" y2="302.6683">
				<stop  offset="0" style="stop-color:#CC9F00"/>
				<stop  offset="1" style="stop-color:#E0CC32"/>
			</linearGradient>
			<path fill="url(#SVGID_70_)" d="M421.2,307.5c-0.8,0-1.7-0.2-2.4-0.6c-1.1-0.6-1.9-1.7-2.3-2.9c-0.3-1.2-0.2-2.6,0.5-3.7
				c0.9-1.5,2.5-2.4,4.2-2.4c0.8,0,1.7,0.2,2.4,0.6c1.1,0.6,1.9,1.7,2.3,2.9c0.3,1.2,0.2,2.5-0.5,3.7
				C424.5,306.6,422.9,307.5,421.2,307.5z M421.2,302.5c-0.1,0-0.1,0.1-0.1,0.1c0,0.1,0,0.2,0.1,0.2c0.2,0,0.2-0.1,0.2-0.1
				C421.4,302.7,421.4,302.6,421.2,302.5L421.2,302.5z"/>
		</g>
		<g>
			<linearGradient id="SVGID_71_" gradientUnits="userSpaceOnUse" x1="372.1035" y1="478.0045" x2="534.2529" y2="478.0045">
				<stop  offset="0" style="stop-color:#CC9F00"/>
				<stop  offset="1" style="stop-color:#E0CC32"/>
			</linearGradient>
			<polygon fill="url(#SVGID_71_)" points="445.5,553.6 372.1,427.4 386.4,402.4 440.3,402.9 485.7,481 534.3,481 534.3,484 
				484,484 438.5,405.8 388.2,405.4 375.6,427.4 447.2,550.6 472.4,550.2 497.4,505.7 500,507.2 474.1,553.2 			"/>
		</g>
		<g>
			<linearGradient id="SVGID_72_" gradientUnits="userSpaceOnUse" x1="477.252" y1="464.8331" x2="488.4766" y2="464.8331">
				<stop  offset="0" style="stop-color:#CC9F00"/>
				<stop  offset="1" style="stop-color:#E0CC32"/>
			</linearGradient>
			<polygon fill="url(#SVGID_72_)" points="479.8,472.5 477.3,470.8 485.9,457.2 488.5,458.8 			"/>
		</g>
		<g>
			<linearGradient id="SVGID_73_" gradientUnits="userSpaceOnUse" x1="468.5605" y1="449.8741" x2="479.7847" y2="449.8741">
				<stop  offset="0" style="stop-color:#CC9F00"/>
				<stop  offset="1" style="stop-color:#E0CC32"/>
			</linearGradient>
			<polygon fill="url(#SVGID_73_)" points="471.1,457.5 468.6,455.9 477.3,442.2 479.8,443.9 			"/>
		</g>
		<g>
			<linearGradient id="SVGID_74_" gradientUnits="userSpaceOnUse" x1="459.8687" y1="434.9152" x2="471.0928" y2="434.9152">
				<stop  offset="0" style="stop-color:#CC9F00"/>
				<stop  offset="1" style="stop-color:#E0CC32"/>
			</linearGradient>
			<polygon fill="url(#SVGID_74_)" points="462.4,442.5 459.9,440.9 468.6,427.3 471.1,428.9 			"/>
		</g>
		<g>
			<linearGradient id="SVGID_75_" gradientUnits="userSpaceOnUse" x1="451.1768" y1="419.9562" x2="462.4009" y2="419.9562">
				<stop  offset="0" style="stop-color:#CC9F00"/>
				<stop  offset="1" style="stop-color:#E0CC32"/>
			</linearGradient>
			<polygon fill="url(#SVGID_75_)" points="453.7,427.6 451.2,426 459.9,412.3 462.4,413.9 			"/>
		</g>
		<g>
			<linearGradient id="SVGID_76_" gradientUnits="userSpaceOnUse" x1="425.3296" y1="459.7416" x2="468.77" y2="459.7416">
				<stop  offset="0" style="stop-color:#CC9F00"/>
				<stop  offset="1" style="stop-color:#E0CC32"/>
			</linearGradient>
			<polygon fill="url(#SVGID_76_)" points="468.8,484.5 453.2,484.5 425.3,436.5 427.9,435 454.9,481.5 468.8,481.5 			"/>
		</g>
		<g>
			<linearGradient id="SVGID_77_" gradientUnits="userSpaceOnUse" x1="418.6704" y1="478.1964" x2="479.8398" y2="478.1964">
				<stop  offset="0" style="stop-color:#CC9F00"/>
				<stop  offset="1" style="stop-color:#E0CC32"/>
			</linearGradient>
			<polygon fill="url(#SVGID_77_)" points="479.8,503.5 447.2,503.4 418.7,454.4 421.3,452.8 448.9,500.5 479.8,500.5 			"/>
		</g>
		<g>
			<linearGradient id="SVGID_78_" gradientUnits="userSpaceOnUse" x1="420.2588" y1="499.3075" x2="470.1099" y2="499.3075">
				<stop  offset="0" style="stop-color:#CC9F00"/>
				<stop  offset="1" style="stop-color:#E0CC32"/>
			</linearGradient>
			<polygon fill="url(#SVGID_78_)" points="440,517.1 420.3,483.1 422.9,481.6 441.7,514 470.1,513.8 470.1,516.8 			"/>
		</g>
		<g>
			<linearGradient id="SVGID_79_" gradientUnits="userSpaceOnUse" x1="376.4658" y1="422.8558" x2="400.0728" y2="422.8558">
				<stop  offset="0" style="stop-color:#CC9F00"/>
				<stop  offset="1" style="stop-color:#E0CC32"/>
			</linearGradient>
			<polygon fill="url(#SVGID_79_)" points="400.1,424.4 376.5,424.3 376.5,421.3 400.1,421.4 			"/>
		</g>
		<g>
			<linearGradient id="SVGID_80_" gradientUnits="userSpaceOnUse" x1="381.2754" y1="413.7382" x2="404.8818" y2="413.7382">
				<stop  offset="0" style="stop-color:#CC9F00"/>
				<stop  offset="1" style="stop-color:#E0CC32"/>
			</linearGradient>
			<polygon fill="url(#SVGID_80_)" points="404.9,415.3 381.3,415.2 381.3,412.2 404.9,412.3 			"/>
		</g>
		<g>
			<linearGradient id="SVGID_81_" gradientUnits="userSpaceOnUse" x1="494.9732" y1="504.5463" x2="504.6445" y2="504.5463">
				<stop  offset="0" style="stop-color:#CC9F00"/>
				<stop  offset="1" style="stop-color:#E0CC32"/>
			</linearGradient>
			<path fill="url(#SVGID_81_)" d="M499.8,509.4c-1.7,0-3.3-0.9-4.2-2.4c-0.6-1.1-0.8-2.4-0.5-3.7s1.1-2.3,2.2-2.9
				c0.7-0.4,1.6-0.7,2.4-0.7c1.7,0,3.3,0.9,4.2,2.4c1.3,2.3,0.6,5.3-1.8,6.6C501.5,509.2,500.7,509.4,499.8,509.4z M499.8,504.4
				C499.8,504.4,499.8,504.4,499.8,504.4c-0.2,0.1-0.2,0.2-0.1,0.2c0,0,0,0.1,0.1,0.1c0.2-0.1,0.2-0.2,0.1-0.2
				C499.9,504.5,499.9,504.4,499.8,504.4z"/>
		</g>
		<g>
			<linearGradient id="SVGID_82_" gradientUnits="userSpaceOnUse" x1="467.3492" y1="515.1957" x2="477.0204" y2="515.1957">
				<stop  offset="0" style="stop-color:#CC9F00"/>
				<stop  offset="1" style="stop-color:#E0CC32"/>
			</linearGradient>
			<path fill="url(#SVGID_82_)" d="M472.2,520c-1.7,0-3.3-0.9-4.2-2.4c-0.6-1.1-0.8-2.4-0.5-3.7c0.3-1.2,1.1-2.3,2.2-2.9
				c0.7-0.4,1.6-0.7,2.4-0.7c1.7,0,3.3,0.9,4.2,2.4c1.3,2.3,0.6,5.3-1.8,6.6C473.9,519.8,473,520,472.2,520z M472.2,515
				C472.2,515,472.1,515,472.2,515c-0.2,0.1-0.2,0.2-0.1,0.2c0,0,0,0.1,0.1,0.1c0.2-0.1,0.2-0.2,0.1-0.2
				C472.3,515.1,472.3,515,472.2,515z"/>
		</g>
		<g>
			<linearGradient id="SVGID_83_" gradientUnits="userSpaceOnUse" x1="477.1929" y1="502.059" x2="486.8642" y2="502.059">
				<stop  offset="0" style="stop-color:#CC9F00"/>
				<stop  offset="1" style="stop-color:#E0CC32"/>
			</linearGradient>
			<path fill="url(#SVGID_83_)" d="M482,506.9c-1.7,0-3.3-0.9-4.2-2.4c-1.3-2.3-0.6-5.3,1.8-6.6c0.7-0.4,1.6-0.7,2.4-0.7
				c1.7,0,3.3,0.9,4.2,2.4c0.6,1.1,0.8,2.4,0.5,3.7s-1.1,2.3-2.2,2.9C483.7,506.7,482.9,506.9,482,506.9z M482,501.9
				C482,501.9,482,501.9,482,501.9c-0.2,0.1-0.2,0.2-0.1,0.2c0,0,0,0.1,0.1,0.1c0.2-0.1,0.2-0.2,0.1-0.2
				C482.2,502,482.1,501.9,482,501.9z"/>
		</g>
		<g>
			<linearGradient id="SVGID_84_" gradientUnits="userSpaceOnUse" x1="465.9497" y1="483.0121" x2="475.6208" y2="483.0121">
				<stop  offset="0" style="stop-color:#CC9F00"/>
				<stop  offset="1" style="stop-color:#E0CC32"/>
			</linearGradient>
			<path fill="url(#SVGID_84_)" d="M470.8,487.8c-1.7,0-3.3-0.9-4.2-2.4c-1.3-2.3-0.6-5.3,1.8-6.6c0.7-0.4,1.6-0.7,2.4-0.7
				c1.7,0,3.3,0.9,4.2,2.4c0.6,1.1,0.8,2.4,0.5,3.7c-0.3,1.2-1.1,2.3-2.2,2.9C472.5,487.6,471.6,487.8,470.8,487.8z M470.8,482.8
				C470.8,482.8,470.7,482.9,470.8,482.8c-0.2,0.1-0.2,0.2-0.1,0.2c0,0,0,0.1,0.1,0.1c0.2-0.1,0.2-0.2,0.1-0.2
				C470.9,482.9,470.9,482.8,470.8,482.8z"/>
		</g>
		<g>
			<linearGradient id="SVGID_85_" gradientUnits="userSpaceOnUse" x1="483.9498" y1="456.0765" x2="493.6242" y2="456.0765">
				<stop  offset="0" style="stop-color:#CC9F00"/>
				<stop  offset="1" style="stop-color:#E0CC32"/>
			</linearGradient>
			<path fill="url(#SVGID_85_)" d="M488.8,460.9c-1.7,0-3.3-0.9-4.2-2.4c-0.6-1.1-0.8-2.4-0.5-3.7c0.3-1.2,1.1-2.3,2.2-2.9
				c0.7-0.4,1.6-0.7,2.4-0.7c1.7,0,3.3,0.9,4.2,2.4c0.6,1.1,0.8,2.4,0.5,3.7c-0.3,1.2-1.1,2.3-2.2,2.9
				C490.5,460.7,489.6,460.9,488.8,460.9z M488.8,455.9C488.8,455.9,488.7,455.9,488.8,455.9c-0.2,0.1-0.2,0.2-0.1,0.2
				c0,0,0.1,0.1,0.1,0.1c0.2-0.1,0.2-0.2,0.1-0.2C488.9,456,488.9,455.9,488.8,455.9z"/>
		</g>
		<g>
			<linearGradient id="SVGID_86_" gradientUnits="userSpaceOnUse" x1="475.1976" y1="441.6986" x2="484.872" y2="441.6986">
				<stop  offset="0" style="stop-color:#CC9F00"/>
				<stop  offset="1" style="stop-color:#E0CC32"/>
			</linearGradient>
			<path fill="url(#SVGID_86_)" d="M480,446.5c-1.7,0-3.3-0.9-4.2-2.4c-0.6-1.1-0.8-2.4-0.5-3.7c0.3-1.2,1.1-2.3,2.2-2.9
				c0.7-0.4,1.6-0.7,2.4-0.7c1.7,0,3.3,0.9,4.2,2.4c0.6,1.1,0.8,2.4,0.5,3.7c-0.3,1.2-1.1,2.3-2.2,2.9
				C481.7,446.3,480.9,446.5,480,446.5z M480,441.5C480,441.5,480,441.5,480,441.5c-0.2,0.1-0.2,0.2-0.1,0.2c0,0,0,0.1,0.1,0.1
				c0.2-0.1,0.2-0.2,0.1-0.2C480.2,441.6,480.1,441.5,480,441.5z"/>
		</g>
		<g>
			<linearGradient id="SVGID_87_" gradientUnits="userSpaceOnUse" x1="466.4974" y1="426.7255" x2="476.1718" y2="426.7255">
				<stop  offset="0" style="stop-color:#CC9F00"/>
				<stop  offset="1" style="stop-color:#E0CC32"/>
			</linearGradient>
			<path fill="url(#SVGID_87_)" d="M471.3,431.6c-1.7,0-3.3-0.9-4.2-2.4c-0.6-1.1-0.8-2.4-0.5-3.7c0.3-1.2,1.1-2.3,2.2-2.9
				c0.7-0.4,1.6-0.7,2.4-0.7c1.7,0,3.3,0.9,4.2,2.4c0.6,1.1,0.8,2.4,0.5,3.7c-0.3,1.2-1.1,2.3-2.2,2.9
				C473,431.3,472.2,431.6,471.3,431.6z M471.3,426.6C471.3,426.6,471.3,426.6,471.3,426.6c-0.2,0.1-0.2,0.2-0.1,0.2
				c0,0,0.1,0.1,0.1,0.1c0.2-0.1,0.2-0.2,0.1-0.2C471.5,426.6,471.4,426.6,471.3,426.6z"/>
		</g>
		<g>
			<linearGradient id="SVGID_88_" gradientUnits="userSpaceOnUse" x1="457.658" y1="411.5067" x2="467.326" y2="411.5067">
				<stop  offset="0" style="stop-color:#CC9F00"/>
				<stop  offset="1" style="stop-color:#E0CC32"/>
			</linearGradient>
			<path fill="url(#SVGID_88_)" d="M462.5,416.3c-1.7,0-3.3-0.9-4.2-2.4c-1.3-2.3-0.6-5.3,1.8-6.6c0.7-0.4,1.6-0.7,2.4-0.7
				c1.7,0,3.3,0.9,4.2,2.4c1.3,2.3,0.6,5.3-1.8,6.6C464.2,416.1,463.3,416.3,462.5,416.3z M462.5,411.3
				C462.5,411.3,462.4,411.4,462.5,411.3c-0.2,0.1-0.2,0.2-0.1,0.2c0,0,0,0.1,0.1,0.1c0.2-0.1,0.2-0.2,0.1-0.2
				C462.6,411.4,462.6,411.3,462.5,411.3z"/>
		</g>
		<g>
			<linearGradient id="SVGID_89_" gradientUnits="userSpaceOnUse" x1="420.7584" y1="433.9657" x2="430.433" y2="433.9657">
				<stop  offset="0" style="stop-color:#CC9F00"/>
				<stop  offset="1" style="stop-color:#E0CC32"/>
			</linearGradient>
			<path fill="url(#SVGID_89_)" d="M425.6,438.8c-1.7,0-3.3-0.9-4.2-2.4c-0.6-1.1-0.8-2.4-0.5-3.7c0.3-1.2,1.1-2.3,2.2-2.9
				c0.7-0.4,1.6-0.7,2.4-0.7c1.7,0,3.3,0.9,4.2,2.4c0.6,1.1,0.8,2.4,0.5,3.7s-1.1,2.3-2.2,2.9C427.3,438.6,426.4,438.8,425.6,438.8z
				 M425.6,433.8C425.6,433.8,425.5,433.8,425.6,433.8c-0.2,0.1-0.2,0.2-0.1,0.2c0,0,0,0.1,0.1,0.1c0.2-0.1,0.2-0.2,0.1-0.2
				C425.7,433.9,425.7,433.8,425.6,433.8z"/>
		</g>
		<g>
			<linearGradient id="SVGID_90_" gradientUnits="userSpaceOnUse" x1="414.0533" y1="451.7445" x2="423.7277" y2="451.7445">
				<stop  offset="0" style="stop-color:#CC9F00"/>
				<stop  offset="1" style="stop-color:#E0CC32"/>
			</linearGradient>
			<path fill="url(#SVGID_90_)" d="M418.9,456.6c-1.7,0-3.3-0.9-4.2-2.4c-0.6-1.1-0.8-2.4-0.5-3.7c0.3-1.2,1.1-2.3,2.2-2.9
				c0.7-0.4,1.6-0.7,2.4-0.7c1.7,0,3.3,0.9,4.2,2.4c0.6,1.1,0.8,2.4,0.5,3.7c-0.3,1.2-1.1,2.3-2.2,2.9
				C420.6,456.4,419.7,456.6,418.9,456.6z M418.9,451.6C418.9,451.6,418.8,451.6,418.9,451.6c-0.2,0.1-0.2,0.2-0.1,0.2
				c0,0,0.1,0.1,0.1,0.1c0.2-0.1,0.2-0.2,0.1-0.2C419,451.7,419,451.6,418.9,451.6z"/>
		</g>
		<g>
			<linearGradient id="SVGID_91_" gradientUnits="userSpaceOnUse" x1="397.1121" y1="423.2977" x2="406.7836" y2="423.2977">
				<stop  offset="0" style="stop-color:#CC9F00"/>
				<stop  offset="1" style="stop-color:#E0CC32"/>
			</linearGradient>
			<path fill="url(#SVGID_91_)" d="M401.9,428.1c-1.7,0-3.3-0.9-4.2-2.4c-1.3-2.3-0.6-5.3,1.8-6.6c0.7-0.4,1.6-0.7,2.4-0.7
				c1.7,0,3.3,0.9,4.2,2.4c0.6,1.1,0.8,2.4,0.5,3.7c-0.3,1.2-1.1,2.3-2.2,2.9C403.6,427.9,402.8,428.1,401.9,428.1z M401.9,423.1
				C401.9,423.1,401.9,423.1,401.9,423.1c-0.2,0.1-0.2,0.2-0.1,0.2c0,0,0,0.1,0.1,0.1c0.2-0.1,0.2-0.2,0.1-0.2
				C402.1,423.2,402,423.1,401.9,423.1z"/>
		</g>
		<g>
			<linearGradient id="SVGID_92_" gradientUnits="userSpaceOnUse" x1="402.2625" y1="413.8534" x2="411.934" y2="413.8534">
				<stop  offset="0" style="stop-color:#CC9F00"/>
				<stop  offset="1" style="stop-color:#E0CC32"/>
			</linearGradient>
			<path fill="url(#SVGID_92_)" d="M407.1,418.7c-1.7,0-3.3-0.9-4.2-2.4c-1.3-2.3-0.6-5.3,1.8-6.6c0.7-0.4,1.6-0.7,2.4-0.7
				c1.7,0,3.3,0.9,4.2,2.4c0.6,1.1,0.8,2.4,0.5,3.7s-1.1,2.3-2.2,2.9C408.8,418.5,407.9,418.7,407.1,418.7z M407.1,413.7
				C407.1,413.7,407,413.7,407.1,413.7c-0.2,0.1-0.2,0.2-0.1,0.2c0,0,0,0.1,0.1,0.1c0.2-0.1,0.2-0.2,0.1-0.2
				C407.2,413.8,407.2,413.7,407.1,413.7z"/>
		</g>
		<g>
			<linearGradient id="SVGID_93_" gradientUnits="userSpaceOnUse" x1="415.5488" y1="480.2933" x2="425.2197" y2="480.2933">
				<stop  offset="0" style="stop-color:#CC9F00"/>
				<stop  offset="1" style="stop-color:#E0CC32"/>
			</linearGradient>
			<path fill="url(#SVGID_93_)" d="M420.4,485.1c-1.7,0-3.3-0.9-4.2-2.4c-1.3-2.3-0.6-5.3,1.8-6.6c0.7-0.4,1.6-0.7,2.4-0.7
				c1.7,0,3.3,0.9,4.2,2.4c0.6,1.1,0.8,2.4,0.5,3.7c-0.3,1.2-1.1,2.3-2.2,2.9C422.1,484.9,421.2,485.1,420.4,485.1z M420.4,480.1
				C420.4,480.1,420.3,480.1,420.4,480.1c-0.2,0.1-0.2,0.2-0.1,0.2c0,0,0,0.1,0.1,0.1c0.2-0.1,0.2-0.2,0.1-0.2
				C420.5,480.2,420.5,480.1,420.4,480.1z"/>
		</g>
		<g>
			<linearGradient id="SVGID_94_" gradientUnits="userSpaceOnUse" x1="615.6504" y1="307.0931" x2="777.9766" y2="307.0931">
				<stop  offset="0" style="stop-color:#CC9F00"/>
				<stop  offset="1" style="stop-color:#E0CC32"/>
			</linearGradient>
			<polygon fill="url(#SVGID_94_)" points="763.7,382.6 709.9,382.3 664.2,304.3 615.7,304.5 615.7,301.5 665.9,301.3 711.6,379.3 
				762,379.6 774.5,357.6 702.5,234.6 677.3,235 652.4,279.6 649.8,278.2 675.6,232.1 704.2,231.6 778,357.6 			"/>
		</g>
		<g>
			<linearGradient id="SVGID_95_" gradientUnits="userSpaceOnUse" x1="661.5054" y1="320.474" x2="672.6924" y2="320.474">
				<stop  offset="0" style="stop-color:#CC9F00"/>
				<stop  offset="1" style="stop-color:#E0CC32"/>
			</linearGradient>
			<polygon fill="url(#SVGID_95_)" points="664,328.1 661.5,326.5 670.2,312.8 672.7,314.4 			"/>
		</g>
		<g>
			<linearGradient id="SVGID_96_" gradientUnits="userSpaceOnUse" x1="670.2441" y1="335.4056" x2="681.4312" y2="335.4056">
				<stop  offset="0" style="stop-color:#CC9F00"/>
				<stop  offset="1" style="stop-color:#E0CC32"/>
			</linearGradient>
			<polygon fill="url(#SVGID_96_)" points="672.8,343 670.2,341.4 678.9,327.8 681.4,329.4 			"/>
		</g>
		<g>
			<linearGradient id="SVGID_97_" gradientUnits="userSpaceOnUse" x1="678.9824" y1="350.3373" x2="690.1699" y2="350.3373">
				<stop  offset="0" style="stop-color:#CC9F00"/>
				<stop  offset="1" style="stop-color:#E0CC32"/>
			</linearGradient>
			<polygon fill="url(#SVGID_97_)" points="681.5,358 679,356.4 687.6,342.7 690.2,344.3 			"/>
		</g>
		<g>
			<linearGradient id="SVGID_98_" gradientUnits="userSpaceOnUse" x1="687.7212" y1="365.2689" x2="698.9087" y2="365.2689">
				<stop  offset="0" style="stop-color:#CC9F00"/>
				<stop  offset="1" style="stop-color:#E0CC32"/>
			</linearGradient>
			<polygon fill="url(#SVGID_98_)" points="690.3,372.9 687.7,371.3 696.4,357.6 698.9,359.2 			"/>
		</g>
		<g>
			<linearGradient id="SVGID_99_" gradientUnits="userSpaceOnUse" x1="681.1401" y1="325.4554" x2="724.7222" y2="325.4554">
				<stop  offset="0" style="stop-color:#CC9F00"/>
				<stop  offset="1" style="stop-color:#E0CC32"/>
			</linearGradient>
			<polygon fill="url(#SVGID_99_)" points="722.1,350.1 695,303.8 681.1,303.8 681.1,300.8 696.7,300.8 724.7,348.6 			"/>
		</g>
		<g>
			<linearGradient id="SVGID_100_" gradientUnits="userSpaceOnUse" x1="670.0112" y1="307.0087" x2="731.3252" y2="307.0087">
				<stop  offset="0" style="stop-color:#CC9F00"/>
				<stop  offset="1" style="stop-color:#E0CC32"/>
			</linearGradient>
			<polygon fill="url(#SVGID_100_)" points="728.7,332.3 700.9,284.7 670,284.7 670,281.7 702.6,281.7 731.3,330.8 			"/>
		</g>
		<g>
			<linearGradient id="SVGID_101_" gradientUnits="userSpaceOnUse" x1="679.6904" y1="285.8383" x2="729.6465" y2="285.8383">
				<stop  offset="0" style="stop-color:#CC9F00"/>
				<stop  offset="1" style="stop-color:#E0CC32"/>
			</linearGradient>
			<polygon fill="url(#SVGID_101_)" points="727.1,303.6 708.1,271.1 679.7,271.4 679.7,268.4 709.8,268.1 729.6,302 			"/>
		</g>
		<g>
			<linearGradient id="SVGID_102_" gradientUnits="userSpaceOnUse" x1="750.0264" y1="362.1544" x2="773.6235" y2="362.1544">
				<stop  offset="0" style="stop-color:#CC9F00"/>
				<stop  offset="1" style="stop-color:#E0CC32"/>
			</linearGradient>
			<polygon fill="url(#SVGID_102_)" points="773.6,363.7 750,363.6 750,360.6 773.6,360.7 			"/>
		</g>
		<g>
			<linearGradient id="SVGID_103_" gradientUnits="userSpaceOnUse" x1="745.2456" y1="371.2867" x2="768.8433" y2="371.2867">
				<stop  offset="0" style="stop-color:#CC9F00"/>
				<stop  offset="1" style="stop-color:#E0CC32"/>
			</linearGradient>
			<polygon fill="url(#SVGID_103_)" points="768.8,372.8 745.2,372.8 745.3,369.8 768.8,369.8 			"/>
		</g>
		<g>
			<linearGradient id="SVGID_104_" gradientUnits="userSpaceOnUse" x1="645.1938" y1="280.8146" x2="654.8654" y2="280.8146">
				<stop  offset="0" style="stop-color:#CC9F00"/>
				<stop  offset="1" style="stop-color:#E0CC32"/>
			</linearGradient>
			<path fill="url(#SVGID_104_)" d="M650,285.7c-1.7,0-3.3-0.9-4.2-2.4c-1.3-2.3-0.6-5.3,1.7-6.6c0.7-0.4,1.6-0.7,2.4-0.7
				c1.7,0,3.3,0.9,4.2,2.4c0.7,1.1,0.8,2.4,0.5,3.7c-0.3,1.2-1.1,2.3-2.2,2.9C651.7,285.4,650.9,285.7,650,285.7z M650,280.7
				C650,280.7,650,280.7,650,280.7c-0.2,0.1-0.2,0.2-0.1,0.2c0,0,0.1,0.1,0.1,0.1c0.2-0.1,0.2-0.2,0.1-0.2
				C650.2,280.7,650.1,280.7,650,280.7z"/>
		</g>
		<g>
			<linearGradient id="SVGID_105_" gradientUnits="userSpaceOnUse" x1="672.7816" y1="270.0785" x2="682.4531" y2="270.0785">
				<stop  offset="0" style="stop-color:#CC9F00"/>
				<stop  offset="1" style="stop-color:#E0CC32"/>
			</linearGradient>
			<path fill="url(#SVGID_105_)" d="M677.6,274.9c-1.7,0-3.3-0.9-4.2-2.4c-0.7-1.1-0.8-2.4-0.5-3.7c0.3-1.2,1.1-2.3,2.2-2.9
				c0.7-0.4,1.6-0.7,2.4-0.7c1.7,0,3.3,0.9,4.2,2.4c1.3,2.3,0.6,5.3-1.7,6.6C679.3,274.7,678.5,274.9,677.6,274.9z M677.6,269.9
				C677.6,269.9,677.5,269.9,677.6,269.9c-0.2,0.1-0.2,0.2-0.1,0.2c0,0,0.1,0.1,0.1,0.1c0.2-0.1,0.2-0.2,0.1-0.2
				C677.8,270,677.7,269.9,677.6,269.9z"/>
		</g>
		<g>
			<linearGradient id="SVGID_106_" gradientUnits="userSpaceOnUse" x1="662.9823" y1="283.2455" x2="672.6537" y2="283.2455">
				<stop  offset="0" style="stop-color:#CC9F00"/>
				<stop  offset="1" style="stop-color:#E0CC32"/>
			</linearGradient>
			<path fill="url(#SVGID_106_)" d="M667.8,288.1c-1.7,0-3.3-0.9-4.2-2.4c-0.7-1.1-0.8-2.4-0.5-3.7c0.3-1.2,1.1-2.3,2.2-2.9
				c0.7-0.4,1.6-0.7,2.4-0.7c1.7,0,3.3,0.9,4.2,2.4c1.3,2.3,0.6,5.3-1.7,6.6C669.5,287.9,668.7,288.1,667.8,288.1z M667.8,283.1
				C667.8,283.1,667.8,283.1,667.8,283.1c-0.2,0.1-0.2,0.2-0.1,0.2c0,0,0.1,0.1,0.1,0.1c0.2-0.1,0.2-0.2,0.1-0.2
				C668,283.2,667.9,283.1,667.8,283.1z"/>
		</g>
		<g>
			<linearGradient id="SVGID_107_" gradientUnits="userSpaceOnUse" x1="674.2881" y1="302.2567" x2="683.9564" y2="302.2567">
				<stop  offset="0" style="stop-color:#CC9F00"/>
				<stop  offset="1" style="stop-color:#E0CC32"/>
			</linearGradient>
			<path fill="url(#SVGID_107_)" d="M679.1,307.1c-1.7,0-3.3-0.9-4.2-2.4c-1.3-2.3-0.6-5.3,1.7-6.6c0.7-0.4,1.6-0.7,2.4-0.7
				c1.7,0,3.3,0.9,4.2,2.4c1.3,2.3,0.6,5.3-1.7,6.6C680.8,306.9,680,307.1,679.1,307.1z M679.1,302.1
				C679.1,302.1,679.1,302.1,679.1,302.1c-0.2,0.1-0.2,0.2-0.1,0.2c0,0,0.1,0.1,0.1,0.1c0.2-0.1,0.2-0.2,0.1-0.2
				C679.3,302.2,679.2,302.1,679.1,302.1z"/>
		</g>
		<g>
			<linearGradient id="SVGID_108_" gradientUnits="userSpaceOnUse" x1="656.3666" y1="329.2489" x2="666.0381" y2="329.2489">
				<stop  offset="0" style="stop-color:#CC9F00"/>
				<stop  offset="1" style="stop-color:#E0CC32"/>
			</linearGradient>
			<path fill="url(#SVGID_108_)" d="M661.2,334.1c-1.7,0-3.3-0.9-4.2-2.4c-0.7-1.1-0.8-2.4-0.5-3.7c0.3-1.2,1.1-2.3,2.2-2.9
				c0.7-0.4,1.6-0.7,2.4-0.7c1.7,0,3.3,0.9,4.2,2.4c1.3,2.3,0.6,5.3-1.7,6.6C662.9,333.9,662.1,334.1,661.2,334.1z M661.2,329.1
				C661.2,329.1,661.1,329.1,661.2,329.1c-0.2,0.1-0.2,0.2-0.1,0.2c0,0,0.1,0.1,0.1,0.1c0.2-0.1,0.2-0.2,0.1-0.2
				C661.3,329.2,661.3,329.1,661.2,329.1z"/>
		</g>
		<g>
			<linearGradient id="SVGID_109_" gradientUnits="userSpaceOnUse" x1="665.1636" y1="343.5995" x2="674.8348" y2="343.5995">
				<stop  offset="0" style="stop-color:#CC9F00"/>
				<stop  offset="1" style="stop-color:#E0CC32"/>
			</linearGradient>
			<path fill="url(#SVGID_109_)" d="M670,348.4c-1.7,0-3.3-0.9-4.2-2.4c-0.7-1.1-0.8-2.4-0.5-3.7s1.1-2.3,2.2-2.9
				c0.7-0.4,1.6-0.7,2.4-0.7c1.7,0,3.3,0.9,4.2,2.4c1.3,2.3,0.6,5.3-1.7,6.6C671.7,348.2,670.9,348.4,670,348.4z M670,343.4
				C670,343.4,669.9,343.5,670,343.4c-0.2,0.1-0.2,0.2-0.1,0.2c0,0,0.1,0.1,0.1,0.1c0.2-0.1,0.2-0.2,0.1-0.2
				C670.1,343.5,670.1,343.4,670,343.4z"/>
		</g>
		<g>
			<linearGradient id="SVGID_110_" gradientUnits="userSpaceOnUse" x1="673.914" y1="358.5453" x2="683.5819" y2="358.5453">
				<stop  offset="0" style="stop-color:#CC9F00"/>
				<stop  offset="1" style="stop-color:#E0CC32"/>
			</linearGradient>
			<path fill="url(#SVGID_110_)" d="M678.8,363.4c-1.7,0-3.3-0.9-4.2-2.4c-1.3-2.3-0.6-5.3,1.7-6.6c0.7-0.4,1.6-0.7,2.4-0.7
				c1.7,0,3.3,0.9,4.2,2.4c1.3,2.3,0.6,5.3-1.7,6.6C680.4,363.2,679.6,363.4,678.8,363.4z M678.8,358.4
				C678.7,358.4,678.7,358.4,678.8,358.4c-0.2,0.1-0.2,0.2-0.1,0.2c0,0,0.1,0.1,0.1,0.1c0.2-0.1,0.2-0.2,0.1-0.2
				C678.9,358.5,678.8,358.4,678.8,358.4z"/>
		</g>
		<g>
			<linearGradient id="SVGID_111_" gradientUnits="userSpaceOnUse" x1="682.8011" y1="373.7362" x2="692.4724" y2="373.7362">
				<stop  offset="0" style="stop-color:#CC9F00"/>
				<stop  offset="1" style="stop-color:#E0CC32"/>
			</linearGradient>
			<path fill="url(#SVGID_111_)" d="M687.6,378.6c-1.7,0-3.3-0.9-4.2-2.4c-0.7-1.1-0.8-2.4-0.5-3.7c0.3-1.2,1.1-2.3,2.2-2.9
				c0.7-0.4,1.6-0.7,2.4-0.7c1.7,0,3.3,0.9,4.2,2.4c1.3,2.3,0.6,5.3-1.7,6.6C689.3,378.3,688.5,378.6,687.6,378.6z M687.6,373.6
				C687.6,373.6,687.6,373.6,687.6,373.6c-0.2,0.1-0.2,0.2-0.1,0.2c0,0,0.1,0.1,0.1,0.1c0.2-0.1,0.2-0.2,0.1-0.2
				C687.8,373.6,687.7,373.6,687.6,373.6z"/>
		</g>
		<g>
			<linearGradient id="SVGID_112_" gradientUnits="userSpaceOnUse" x1="719.6299" y1="351.1615" x2="729.2983" y2="351.1615">
				<stop  offset="0" style="stop-color:#CC9F00"/>
				<stop  offset="1" style="stop-color:#E0CC32"/>
			</linearGradient>
			<path fill="url(#SVGID_112_)" d="M724.5,356c-1.7,0-3.3-0.9-4.2-2.4c-1.3-2.3-0.6-5.3,1.7-6.6c0.7-0.4,1.6-0.7,2.4-0.7
				c1.7,0,3.3,0.9,4.2,2.4c1.3,2.3,0.6,5.3-1.7,6.6C726.2,355.8,725.3,356,724.5,356z M724.5,351C724.4,351,724.4,351,724.5,351
				c-0.2,0.1-0.2,0.2-0.1,0.2c0,0,0.1,0.1,0.1,0.1c0.2-0.1,0.2-0.2,0.1-0.2C724.6,351.1,724.6,351,724.5,351z"/>
		</g>
		<g>
			<linearGradient id="SVGID_113_" gradientUnits="userSpaceOnUse" x1="726.2762" y1="333.3622" x2="735.9474" y2="333.3622">
				<stop  offset="0" style="stop-color:#CC9F00"/>
				<stop  offset="1" style="stop-color:#E0CC32"/>
			</linearGradient>
			<path fill="url(#SVGID_113_)" d="M731.1,338.2c-1.7,0-3.3-0.9-4.2-2.4c-0.7-1.1-0.8-2.4-0.5-3.7c0.3-1.2,1.1-2.3,2.2-2.9
				c0.7-0.4,1.6-0.7,2.4-0.7c1.7,0,3.3,0.9,4.2,2.4c1.3,2.3,0.6,5.3-1.7,6.6C732.8,338,732,338.2,731.1,338.2z M731.1,333.2
				C731.1,333.2,731,333.2,731.1,333.2c-0.2,0.1-0.2,0.2-0.1,0.2c0,0,0.1,0.1,0.1,0.1c0.2-0.1,0.2-0.2,0.1-0.2
				C731.3,333.3,731.2,333.2,731.1,333.2z"/>
		</g>
		<g>
			<linearGradient id="SVGID_114_" gradientUnits="userSpaceOnUse" x1="743.3127" y1="361.7552" x2="752.9809" y2="361.7552">
				<stop  offset="0" style="stop-color:#CC9F00"/>
				<stop  offset="1" style="stop-color:#E0CC32"/>
			</linearGradient>
			<path fill="url(#SVGID_114_)" d="M748.1,366.6c-1.7,0-3.3-0.9-4.2-2.4c-1.3-2.3-0.6-5.3,1.7-6.6c0.7-0.4,1.6-0.7,2.4-0.7
				c1.7,0,3.3,0.9,4.2,2.4c1.3,2.3,0.6,5.3-1.7,6.6C749.8,366.4,749,366.6,748.1,366.6z M748.1,361.6
				C748.1,361.6,748.1,361.6,748.1,361.6c-0.2,0.1-0.2,0.2-0.1,0.2c0,0,0.1,0.1,0.1,0.1c0.2-0.1,0.2-0.2,0.1-0.2
				C748.3,361.7,748.2,361.6,748.1,361.6z"/>
		</g>
		<g>
			<linearGradient id="SVGID_115_" gradientUnits="userSpaceOnUse" x1="738.1888" y1="371.2157" x2="747.86" y2="371.2157">
				<stop  offset="0" style="stop-color:#CC9F00"/>
				<stop  offset="1" style="stop-color:#E0CC32"/>
			</linearGradient>
			<path fill="url(#SVGID_115_)" d="M743,376.1c-1.7,0-3.3-0.9-4.2-2.4c-0.7-1.1-0.8-2.4-0.5-3.7c0.3-1.2,1.1-2.3,2.2-2.9
				c0.7-0.4,1.6-0.7,2.4-0.7c1.7,0,3.3,0.9,4.2,2.4c1.3,2.3,0.6,5.3-1.7,6.6C744.7,375.8,743.9,376.1,743,376.1z M743,371.1
				C743,371.1,743,371.1,743,371.1c-0.2,0.1-0.2,0.2-0.1,0.2c0,0,0.1,0.1,0.1,0.1c0.2-0.1,0.2-0.2,0.1-0.2
				C743.2,371.1,743.1,371.1,743,371.1z"/>
		</g>
		<g>
			<linearGradient id="SVGID_116_" gradientUnits="userSpaceOnUse" x1="724.6979" y1="304.8173" x2="734.3661" y2="304.8173">
				<stop  offset="0" style="stop-color:#CC9F00"/>
				<stop  offset="1" style="stop-color:#E0CC32"/>
			</linearGradient>
			<path fill="url(#SVGID_116_)" d="M729.5,309.7c-1.7,0-3.3-0.9-4.2-2.4c-1.3-2.3-0.6-5.3,1.7-6.6c0.7-0.4,1.6-0.7,2.4-0.7
				c1.7,0,3.3,0.9,4.2,2.4c1.3,2.3,0.6,5.3-1.7,6.6C731.2,309.4,730.4,309.7,729.5,309.7z M729.5,304.7
				C729.5,304.7,729.5,304.7,729.5,304.7c-0.2,0.1-0.2,0.2-0.1,0.2c0,0,0.1,0.1,0.1,0.1c0.2-0.1,0.2-0.2,0.1-0.2
				C729.7,304.7,729.6,304.7,729.5,304.7z"/>
		</g>
		<g>
			<linearGradient id="SVGID_117_" gradientUnits="userSpaceOnUse" x1="650.228" y1="466.3719" x2="777.8306" y2="466.3719">
				<stop  offset="0" style="stop-color:#CC9F00"/>
				<stop  offset="1" style="stop-color:#E0CC32"/>
			</linearGradient>
			<polygon fill="url(#SVGID_117_)" points="676.9,550.8 650.2,504 694.8,425.4 670.3,383.5 672.9,382 698.3,425.4 653.7,504 
				678.7,547.8 704,547.6 774.4,423.6 761.3,402 710.2,402.8 710.2,399.8 763,399 777.8,423.5 705.8,550.6 			"/>
		</g>
		<g>
			<linearGradient id="SVGID_118_" gradientUnits="userSpaceOnUse" x1="674.147" y1="436.0072" x2="690.4272" y2="436.0072">
				<stop  offset="0" style="stop-color:#CC9F00"/>
				<stop  offset="1" style="stop-color:#E0CC32"/>
			</linearGradient>
			<polygon fill="url(#SVGID_118_)" points="690.3,437.8 674.1,437.2 674.3,434.2 690.4,434.8 			"/>
		</g>
		<g>
			<linearGradient id="SVGID_119_" gradientUnits="userSpaceOnUse" x1="665.6094" y1="451.0543" x2="681.8887" y2="451.0543">
				<stop  offset="0" style="stop-color:#CC9F00"/>
				<stop  offset="1" style="stop-color:#E0CC32"/>
			</linearGradient>
			<polygon fill="url(#SVGID_119_)" points="681.8,452.9 665.6,452.2 665.7,449.2 681.9,449.9 			"/>
		</g>
		<g>
			<linearGradient id="SVGID_120_" gradientUnits="userSpaceOnUse" x1="657.0708" y1="466.1017" x2="673.3506" y2="466.1017">
				<stop  offset="0" style="stop-color:#CC9F00"/>
				<stop  offset="1" style="stop-color:#E0CC32"/>
			</linearGradient>
			<polygon fill="url(#SVGID_120_)" points="673.2,467.9 657.1,467.3 657.2,464.3 673.4,464.9 			"/>
		</g>
		<g>
			<linearGradient id="SVGID_121_" gradientUnits="userSpaceOnUse" x1="648.5327" y1="481.1488" x2="664.8125" y2="481.1488">
				<stop  offset="0" style="stop-color:#CC9F00"/>
				<stop  offset="1" style="stop-color:#E0CC32"/>
			</linearGradient>
			<polygon fill="url(#SVGID_121_)" points="664.7,483 648.5,482.3 648.6,479.3 664.8,480 			"/>
		</g>
		<g>
			<linearGradient id="SVGID_122_" gradientUnits="userSpaceOnUse" x1="684.2036" y1="469.1293" x2="714.186" y2="469.1293">
				<stop  offset="0" style="stop-color:#CC9F00"/>
				<stop  offset="1" style="stop-color:#E0CC32"/>
			</linearGradient>
			<polygon fill="url(#SVGID_122_)" points="686.8,500 684.2,498.5 710.7,451.8 703.8,439.8 706.4,438.3 714.2,451.7 			"/>
		</g>
		<g>
			<linearGradient id="SVGID_123_" gradientUnits="userSpaceOnUse" x1="702.9834" y1="457.9227" x2="733.6162" y2="457.9227">
				<stop  offset="0" style="stop-color:#CC9F00"/>
				<stop  offset="1" style="stop-color:#E0CC32"/>
			</linearGradient>
			<polygon fill="url(#SVGID_123_)" points="705.6,496.7 703,495.3 730.2,447.4 714.7,420.6 717.3,419.1 733.6,447.3 			"/>
		</g>
		<g>
			<linearGradient id="SVGID_124_" gradientUnits="userSpaceOnUse" x1="726.9829" y1="450.8512" x2="748.9927" y2="450.8512">
				<stop  offset="0" style="stop-color:#CC9F00"/>
				<stop  offset="1" style="stop-color:#E0CC32"/>
			</linearGradient>
			<polygon fill="url(#SVGID_124_)" points="729.6,480.9 727,479.4 745.5,446.7 731,422.3 733.6,420.8 749,446.7 			"/>
		</g>
		<g>
			<linearGradient id="SVGID_125_" gradientUnits="userSpaceOnUse" x1="686.5254" y1="538.8646" x2="700.9058" y2="538.8646">
				<stop  offset="0" style="stop-color:#CC9F00"/>
				<stop  offset="1" style="stop-color:#E0CC32"/>
			</linearGradient>
			<polygon fill="url(#SVGID_125_)" points="698.3,549.8 686.5,529.4 689.1,527.9 700.9,548.3 			"/>
		</g>
		<g>
			<linearGradient id="SVGID_126_" gradientUnits="userSpaceOnUse" x1="676.2271" y1="539.307" x2="690.6074" y2="539.307">
				<stop  offset="0" style="stop-color:#CC9F00"/>
				<stop  offset="1" style="stop-color:#E0CC32"/>
			</linearGradient>
			<polygon fill="url(#SVGID_126_)" points="688,550.3 676.2,529.8 678.8,528.3 690.6,548.8 			"/>
		</g>
		<g>
			<linearGradient id="SVGID_127_" gradientUnits="userSpaceOnUse" x1="703.2061" y1="401.3534" x2="712.8806" y2="401.3534">
				<stop  offset="0" style="stop-color:#CC9F00"/>
				<stop  offset="1" style="stop-color:#E0CC32"/>
			</linearGradient>
			<path fill="url(#SVGID_127_)" d="M708,406.2c-0.8,0-1.7-0.2-2.4-0.6c-1.1-0.6-1.9-1.7-2.3-2.9c-0.3-1.2-0.2-2.5,0.5-3.7
				c0.9-1.5,2.5-2.4,4.2-2.4c0.8,0,1.7,0.2,2.4,0.6c1.1,0.6,1.9,1.7,2.3,2.9c0.3,1.2,0.2,2.5-0.5,3.7
				C711.4,405.3,709.8,406.2,708,406.2z M708,401.2c-0.1,0-0.1,0.1-0.1,0.1c0,0.1,0,0.2,0.1,0.2c0.2,0,0.2-0.1,0.2-0.1
				C708.2,401.4,708.2,401.2,708,401.2L708,401.2z"/>
		</g>
		<g>
			<linearGradient id="SVGID_128_" gradientUnits="userSpaceOnUse" x1="726.3312" y1="419.8431" x2="736.0027" y2="419.8431">
				<stop  offset="0" style="stop-color:#CC9F00"/>
				<stop  offset="1" style="stop-color:#E0CC32"/>
			</linearGradient>
			<path fill="url(#SVGID_128_)" d="M731.2,424.7c-0.8,0-1.7-0.2-2.4-0.6c-2.3-1.3-3.1-4.3-1.8-6.6c0.9-1.5,2.5-2.4,4.2-2.4
				c0.8,0,1.7,0.2,2.4,0.6c1.1,0.6,1.9,1.7,2.3,2.9c0.3,1.2,0.2,2.5-0.5,3.7C734.5,423.7,732.9,424.7,731.2,424.7z M731.2,419.7
				c-0.1,0-0.1,0.1-0.1,0.1c0,0.1,0,0.2,0.1,0.2c0.2,0,0.2-0.1,0.2-0.1C731.4,419.8,731.3,419.7,731.2,419.7L731.2,419.7z"/>
		</g>
		<g>
			<linearGradient id="SVGID_129_" gradientUnits="userSpaceOnUse" x1="710.0261" y1="417.9659" x2="719.6942" y2="417.9659">
				<stop  offset="0" style="stop-color:#CC9F00"/>
				<stop  offset="1" style="stop-color:#E0CC32"/>
			</linearGradient>
			<path fill="url(#SVGID_129_)" d="M714.9,422.8c-0.8,0-1.7-0.2-2.4-0.6c-2.3-1.3-3.1-4.3-1.8-6.6c0.9-1.5,2.5-2.4,4.2-2.4
				c0.8,0,1.7,0.2,2.4,0.6c2.3,1.3,3.1,4.3,1.8,6.6C718.2,421.9,716.6,422.8,714.9,422.8z M714.9,417.8c-0.1,0-0.1,0.1-0.1,0.1
				c0,0.1,0,0.2,0.1,0.2c0.2,0,0.2-0.1,0.2-0.1C715,418,715,417.9,714.9,417.8L714.9,417.8z"/>
		</g>
		<g>
			<linearGradient id="SVGID_130_" gradientUnits="userSpaceOnUse" x1="699.2433" y1="437.277" x2="708.9148" y2="437.277">
				<stop  offset="0" style="stop-color:#CC9F00"/>
				<stop  offset="1" style="stop-color:#E0CC32"/>
			</linearGradient>
			<path fill="url(#SVGID_130_)" d="M704.1,442.1c-0.8,0-1.7-0.2-2.4-0.6c-2.3-1.3-3.1-4.3-1.8-6.6c0.9-1.5,2.5-2.5,4.2-2.5
				c0.8,0,1.7,0.2,2.4,0.6c1.1,0.6,1.9,1.7,2.3,2.9c0.3,1.2,0.2,2.5-0.5,3.7C707.4,441.2,705.8,442.1,704.1,442.1z M704.1,437.1
				c-0.1,0-0.1,0.1-0.1,0.1c0,0.1,0,0.2,0.1,0.2c0.2,0,0.2-0.1,0.2-0.1C704.3,437.3,704.2,437.2,704.1,437.1L704.1,437.1z"/>
		</g>
		<g>
			<linearGradient id="SVGID_131_" gradientUnits="userSpaceOnUse" x1="666.9019" y1="435.306" x2="676.5761" y2="435.306">
				<stop  offset="0" style="stop-color:#CC9F00"/>
				<stop  offset="1" style="stop-color:#E0CC32"/>
			</linearGradient>
			<path fill="url(#SVGID_131_)" d="M671.7,440.1c-0.8,0-1.7-0.2-2.4-0.6c-1.1-0.6-1.9-1.7-2.3-2.9c-0.3-1.2-0.2-2.5,0.5-3.7
				c0.9-1.5,2.5-2.4,4.2-2.4c0.8,0,1.7,0.2,2.4,0.6c1.1,0.6,1.9,1.7,2.3,2.9c0.3,1.2,0.2,2.5-0.5,3.7
				C675.1,439.2,673.5,440.1,671.7,440.1z M671.7,435.1c-0.1,0-0.1,0.1-0.1,0.1c0,0.1,0,0.2,0.1,0.2c0.2,0,0.2-0.1,0.2-0.1
				C671.9,435.3,671.9,435.2,671.7,435.1L671.7,435.1z"/>
		</g>
		<g>
			<linearGradient id="SVGID_132_" gradientUnits="userSpaceOnUse" x1="658.8991" y1="450.1124" x2="668.567" y2="450.1124">
				<stop  offset="0" style="stop-color:#CC9F00"/>
				<stop  offset="1" style="stop-color:#E0CC32"/>
			</linearGradient>
			<path fill="url(#SVGID_132_)" d="M663.7,454.9c-0.8,0-1.7-0.2-2.4-0.6c-2.3-1.3-3.1-4.3-1.8-6.6c0.9-1.5,2.5-2.4,4.2-2.4
				c0.8,0,1.7,0.2,2.4,0.6c2.3,1.3,3.1,4.3,1.8,6.6C667.1,454,665.5,454.9,663.7,454.9z M663.7,449.9c-0.1,0-0.1,0.1-0.1,0.1
				c0,0.1,0,0.2,0.1,0.2c0.2,0,0.2-0.1,0.2-0.1C663.9,450.1,663.9,450,663.7,449.9L663.7,449.9z"/>
		</g>
		<g>
			<linearGradient id="SVGID_133_" gradientUnits="userSpaceOnUse" x1="650.3528" y1="465.174" x2="660.0209" y2="465.174">
				<stop  offset="0" style="stop-color:#CC9F00"/>
				<stop  offset="1" style="stop-color:#E0CC32"/>
			</linearGradient>
			<path fill="url(#SVGID_133_)" d="M655.2,470c-0.8,0-1.7-0.2-2.4-0.6c-2.3-1.3-3.1-4.3-1.8-6.6c0.9-1.5,2.5-2.5,4.2-2.5
				c0.8,0,1.7,0.2,2.4,0.6c2.3,1.3,3.1,4.3,1.8,6.6C658.5,469.1,656.9,470,655.2,470z M655.2,465c-0.1,0-0.1,0.1-0.1,0.1
				c0,0.1,0,0.2,0.1,0.2c0.2,0,0.2-0.1,0.2-0.1C655.4,465.2,655.3,465.1,655.2,465L655.2,465z"/>
		</g>
		<g>
			<linearGradient id="SVGID_134_" gradientUnits="userSpaceOnUse" x1="641.6661" y1="480.4823" x2="651.3375" y2="480.4823">
				<stop  offset="0" style="stop-color:#CC9F00"/>
				<stop  offset="1" style="stop-color:#E0CC32"/>
			</linearGradient>
			<path fill="url(#SVGID_134_)" d="M646.5,485.3c-0.8,0-1.7-0.2-2.4-0.6c-2.3-1.3-3.1-4.3-1.8-6.6c0.9-1.5,2.5-2.5,4.2-2.5
				c0.8,0,1.7,0.2,2.4,0.6c1.1,0.6,1.9,1.7,2.3,2.9c0.3,1.2,0.2,2.5-0.5,3.7C649.8,484.4,648.2,485.3,646.5,485.3z M646.5,480.3
				c-0.1,0-0.1,0.1-0.1,0.1c0,0.1,0,0.2,0.1,0.2c0.2,0,0.2-0.1,0.2-0.1C646.7,480.5,646.7,480.4,646.5,480.3L646.5,480.3z"/>
		</g>
		<g>
			<linearGradient id="SVGID_135_" gradientUnits="userSpaceOnUse" x1="679.6616" y1="501.0272" x2="689.3302" y2="501.0272">
				<stop  offset="0" style="stop-color:#CC9F00"/>
				<stop  offset="1" style="stop-color:#E0CC32"/>
			</linearGradient>
			<path fill="url(#SVGID_135_)" d="M684.5,505.9c-0.8,0-1.7-0.2-2.4-0.6c-2.3-1.3-3.1-4.3-1.8-6.6c0.9-1.5,2.5-2.5,4.2-2.5
				c0.8,0,1.7,0.2,2.4,0.6c2.3,1.3,3.1,4.3,1.8,6.6C687.8,504.9,686.2,505.9,684.5,505.9z M684.5,500.9c-0.1,0-0.1,0.1-0.1,0.1
				c0,0.1,0,0.2,0.1,0.2c0.2,0,0.2-0.1,0.2-0.1C684.7,501,684.7,500.9,684.5,500.9L684.5,500.9z"/>
		</g>
		<g>
			<linearGradient id="SVGID_136_" gradientUnits="userSpaceOnUse" x1="698.3961" y1="497.8568" x2="708.0676" y2="497.8568">
				<stop  offset="0" style="stop-color:#CC9F00"/>
				<stop  offset="1" style="stop-color:#E0CC32"/>
			</linearGradient>
			<path fill="url(#SVGID_136_)" d="M703.2,502.7c-0.8,0-1.7-0.2-2.4-0.6c-2.3-1.3-3.1-4.3-1.8-6.6c0.9-1.5,2.5-2.4,4.2-2.4
				c0.8,0,1.7,0.2,2.4,0.6c1.1,0.6,1.9,1.7,2.3,2.9s0.2,2.5-0.5,3.7C706.6,501.8,705,502.7,703.2,502.7z M703.2,497.7
				c-0.1,0-0.1,0.1-0.1,0.1c0,0.1,0,0.2,0.1,0.2c0.2,0,0.2-0.1,0.2-0.1C703.4,497.9,703.4,497.8,703.2,497.7L703.2,497.7z"/>
		</g>
		<g>
			<linearGradient id="SVGID_137_" gradientUnits="userSpaceOnUse" x1="682.366" y1="526.8295" x2="692.0375" y2="526.8295">
				<stop  offset="0" style="stop-color:#CC9F00"/>
				<stop  offset="1" style="stop-color:#E0CC32"/>
			</linearGradient>
			<path fill="url(#SVGID_137_)" d="M687.2,531.7c-0.8,0-1.7-0.2-2.4-0.6c-1.1-0.6-1.9-1.7-2.3-2.9s-0.2-2.5,0.5-3.7
				c0.9-1.5,2.5-2.4,4.2-2.4c0.8,0,1.7,0.2,2.4,0.6c2.3,1.3,3.1,4.3,1.8,6.6C690.6,530.7,688.9,531.7,687.2,531.7z M687.2,526.7
				c-0.1,0-0.1,0.1-0.1,0.1c0,0.1,0,0.2,0.1,0.2c0.2,0,0.2-0.1,0.2-0.1C687.4,526.8,687.4,526.7,687.2,526.7L687.2,526.7z"/>
		</g>
		<g>
			<linearGradient id="SVGID_138_" gradientUnits="userSpaceOnUse" x1="671.6132" y1="527.142" x2="681.2844" y2="527.142">
				<stop  offset="0" style="stop-color:#CC9F00"/>
				<stop  offset="1" style="stop-color:#E0CC32"/>
			</linearGradient>
			<path fill="url(#SVGID_138_)" d="M676.4,532c-0.8,0-1.7-0.2-2.4-0.6c-1.1-0.6-1.9-1.7-2.3-2.9s-0.2-2.5,0.5-3.7
				c0.9-1.5,2.5-2.4,4.2-2.4c0.8,0,1.7,0.2,2.4,0.6c2.3,1.3,3.1,4.3,1.8,6.6C679.8,531,678.2,532,676.4,532z M676.4,527
				c-0.1,0-0.1,0.1-0.1,0.1c0,0.1,0,0.2,0.1,0.2c0.2,0,0.2-0.1,0.2-0.1C676.6,527.2,676.6,527,676.4,527L676.4,527z"/>
		</g>
		<g>
			<linearGradient id="SVGID_139_" gradientUnits="userSpaceOnUse" x1="722.3009" y1="482.1771" x2="731.9724" y2="482.1771">
				<stop  offset="0" style="stop-color:#CC9F00"/>
				<stop  offset="1" style="stop-color:#E0CC32"/>
			</linearGradient>
			<path fill="url(#SVGID_139_)" d="M727.1,487c-0.8,0-1.7-0.2-2.4-0.6c-2.3-1.3-3.1-4.3-1.8-6.6c0.9-1.5,2.5-2.4,4.2-2.4
				c0.8,0,1.7,0.2,2.4,0.6c1.1,0.6,1.9,1.7,2.3,2.9s0.2,2.5-0.5,3.7C730.5,486.1,728.9,487,727.1,487z M727.1,482
				c-0.1,0-0.1,0.1-0.1,0.1c0,0.1,0,0.2,0.1,0.2c0.2,0,0.2-0.1,0.2-0.1C727.3,482.2,727.3,482.1,727.1,482L727.1,482z"/>
		</g>
		<g>
			<linearGradient id="SVGID_140_" gradientUnits="userSpaceOnUse" x1="471.3257" y1="392.7428" x2="677.9716" y2="392.7428">
				<stop  offset="0" style="stop-color:#CC9F00"/>
				<stop  offset="1" style="stop-color:#E0CC32"/>
			</linearGradient>
			<path fill="url(#SVGID_140_)" d="M574.3,454.1c-1.1,0-2.1,0-3.2,0c-3.4-0.1-6.8-0.5-9.9-1c-4.8-0.7-9.6-1.8-14.9-3.5
				c-4.5-1.4-8.5-3-12.3-4.8l-1.2-0.6l0,0c-0.1,0-0.2-0.1-0.3-0.1c-0.8-0.4-1.9-0.9-2.9-1.4c-0.7-0.3-1.2-0.6-1.7-0.9l0,0l-0.2-0.1
				l-0.1,0l-1.2-0.6l0,0.2l-4.8-2.9c-3.3-1.8-6.1-3.6-8.3-5.2l0,0c-2.5-1.7-5.1-3.5-8-5.8c-5.4-4.1-10.7-8.6-15.7-13.4
				c-6.6-6.3-12.1-12.3-16.7-18.3c-1.9-2.4-1.9-3.6,0-6.1c6.2-7.9,13.4-15.5,22.1-23.1c6.6-5.8,13.4-11,20.4-15.6
				c5.9-3.8,12-7.2,18.1-10c4.3-2,8.6-3.6,12.8-4.9c4.9-1.5,9.9-2.7,14.9-3.5c5.6-0.9,11.6-1.2,17.9-1c3.7,0.2,7.7,0.6,12.2,1.5
				c4.9,0.9,9.8,2.2,15,4.1c2.9,1,5.7,2.2,8.9,3.6c9,3.6,17.8,9.6,18.1,9.9l0.2,0.1c5,3.1,10,6.8,16.3,11.9
				c6,4.9,11.9,10.4,17.8,16.7c3.1,3.3,6.2,6.9,9.9,11.6c1,1.2,1,2.7,0,4c-7.5,9.7-16.4,18.8-27.2,27.9
				c-6.6,5.5-13.5,10.4-20.7,14.7c-5.7,3.4-11.5,6.4-17.4,8.9c-4.3,1.8-8.6,3.3-12.7,4.4c-5.2,1.4-10.3,2.4-15.3,3
				C581,453.9,577.8,454.1,574.3,454.1z M531.8,438.2c0.9,0.5,2.1,1,2.9,1.4l1.5,0.7c3.6,1.7,7.4,3.2,11.7,4.5
				c5,1.6,9.7,2.7,14.1,3.3c3,0.4,6.2,0.9,9.4,0.9c1,0,2,0,3,0c3.3,0,6.3-0.2,9.1-0.5c4.7-0.5,9.6-1.5,14.6-2.8
				c3.9-1.1,8-2.5,12.1-4.2c5.6-2.4,11.2-5.2,16.7-8.5c6.9-4.2,13.7-9,20-14.3c10.1-8.5,18.5-17,25.6-26c-3.2-4-6-7.3-8.7-10.1
				c-5.8-6.1-11.5-11.4-17.3-16.2c-6.2-5.1-11.1-8.7-16-11.7l-1.2-0.7v-0.1c-2.6-1.7-9.5-6-16.1-8.7l-0.1-0.1
				c-3-1.3-5.8-2.5-8.5-3.4c-5-1.7-9.6-3-14.3-3.9c-4.3-0.8-8-1.3-11.5-1.4c-5.9-0.2-11.6,0.1-16.9,0.9c-4.8,0.8-9.5,1.9-14.2,3.4
				c-4,1.2-8.1,2.8-12.2,4.7c-5.9,2.7-11.8,6-17.5,9.7c-6.8,4.4-13.5,9.5-19.9,15.2c-8.4,7.4-15.4,14.8-21.4,22.4
				c4.5,5.8,9.8,11.6,16.2,17.7c4.9,4.7,10.1,9.1,15.3,13.1c2.8,2.2,5.4,4,7.8,5.6l0.1,0.1c2.1,1.5,4.8,3.2,8,5l0.2,0.1l1.5,0.8
				c0.7,0.4,1.5,0.8,2.2,1.2L531.8,438.2z M574.5,441c-1.3,0-2.6-0.1-3.8-0.2c-10.4-0.9-19.6-4.8-27.5-11.5
				c-5.6-4.8-9.9-10.6-12.9-17.4c-3.3-7.6-4.6-15.5-3.8-23.4c1.3-13.2,7.1-24.3,17.2-32.9c4.2-3.6,9-6.4,14.4-8.3
				c3.2-1.2,6.7-2,10.2-2.5l0.2,0l0.3,0c0.1,0,0.2,0,0.2,0l0.7-0.3l0.6,0.2c0,0,0,0,0.1,0l0.3-0.1l7.4,0l0.3,0.1l0.7-0.2l0.9,0.4
				l0,0c0,0,0.1,0,0.3,0l0.2,0l0.3,0c9.5,1.3,17.9,5.1,25.1,11.3c5.2,4.5,9.3,9.9,12.3,16.1c2.1,4.5,3.6,9.4,4.2,14.6
				c0.5,4.2,0.5,8.6-0.1,13c-0.6,3.9-1.6,7.7-3.1,11.3l-0.1,0.2c-0.5,1.2-1,2.5-1.7,3.7c0,1.2-0.6,2.1-1.5,2.7c0,0-0.1,0.2-0.2,0.3
				c-0.1,0.1-0.1,0.2-0.2,0.2c-0.1,0.2-0.2,0.4-0.4,0.6c-0.4,1-1.1,1.8-1.6,2.4c-0.1,0.2-0.3,0.4-0.4,0.5
				c-4.2,5.6-9.4,10.1-15.6,13.4c-4.3,2.3-8.8,3.9-13.5,4.9C580.7,440.7,577.6,441,574.5,441z M568.8,349.9
				c-3.1,0.4-6.1,1.1-8.9,2.2c-4.8,1.8-9.2,4.3-12.9,7.5c-9.1,7.7-14.3,17.7-15.5,29.6c-0.7,7.1,0.5,14.1,3.4,20.9
				c2.6,6,6.5,11.2,11.5,15.5c7.1,6,15.4,9.5,24.7,10.3c3.8,0.3,7.7,0.1,12-0.7c4.2-0.8,8.2-2.3,12-4.3c5.5-3,10.2-7,13.9-12
				c0.2-0.2,0.3-0.4,0.5-0.6c0.3-0.4,0.6-0.7,0.8-1l-0.8-2.8l2.4,0.3c0.1-0.2,0.3-0.4,0.5-0.5l0-0.5l0.4-0.7
				c0.7-1.1,1.2-2.3,1.8-3.7l0.1-0.2c1.4-3.2,2.3-6.6,2.8-10c0.6-4,0.6-7.9,0.1-11.7c-0.6-4.7-1.9-9.1-3.8-13.1
				c-2.6-5.6-6.3-10.4-11-14.4c-6.4-5.5-13.9-8.9-22.4-10.1c-0.4,0-1,0-1.7-0.2c-0.4,0-0.8,0-1.2-0.1l-6,0c-0.4,0.1-0.8,0.1-1.1,0.1
				C569.8,349.8,569.2,349.9,568.8,349.9L568.8,349.9z M527.9,425.2l-6.2-2.4c-1.1-0.4-1.8-1-2.4-1.4c-0.1-0.1-0.3-0.2-0.4-0.3
				c-10.4-7.2-20.4-16-29.7-26c-0.5-0.5-1.9-2.4,0.1-4.5c6.7-7.4,14.2-14.3,22.1-20.5c2.6-2.1,5.5-4.1,9.2-6.7
				c0.4-0.3,0.7-0.4,0.9-0.4l0.2-0.1l6-2.1l-3,5.7c-2.7,5.2-4.6,10.6-5.7,16.2l-0.2,0.9c0,0.3-0.1,0.6-0.1,0.9
				c-0.3,2.2-0.5,4.5-0.6,6.7l0,1.3c0,0.8,0,1.5,0,2.2l0,0.2l0,0.1l0,0.3c0,0.7,0.1,1.3,0.1,2l0.1,1.5l0,0l0.1,0.9
				c0.5,4.8,1.6,9.3,3.3,13.2l0,0.1c0.8,2.2,1.8,4.3,2.9,6.4L527.9,425.2z M494,392.8c7.2,7.7,14.8,14.6,22.7,20.5
				c-1.5-3.9-2.5-8.1-3-12.6l-0.3-0.4l0.2-0.9l-0.1-0.4l0.1-0.4l-0.1-0.2l-0.1-2.2l0.1-0.1c0-0.3,0-0.6,0-0.8c0-0.3,0-0.5,0-0.8
				c0-0.7,0-1.4,0-2.1l0-1.4l0-0.1c0.1-2.4,0.3-4.9,0.7-7.3c0.2-1.3,0.3-2,0.3-2.1l0-0.2c0.6-3.1,1.4-6.1,2.5-9.1
				c-0.8,0.6-1.5,1.2-2.2,1.7C507.2,379.7,500.3,386,494,392.8z M621.3,425.1l3.1-5.9c3.1-6,5.1-12.1,6.1-18.5c0-0.3,0-0.8,0.2-1.3
				c0-0.3,0.1-0.6,0.2-0.8c0.2-1.8,0.2-3.7,0.2-5.6l0-1.1c0-3.2-0.4-6.6-1.1-10.3c-0.6-3.2-1.6-6.3-2.8-9.4
				c-0.4-0.9-0.8-1.8-1.2-2.7c-0.5-1.1-0.9-2.1-1.4-3.3l-2.9-7.4l7.5,5c0.7,0.4,1.3,0.9,2,1.3c10.4,7.4,19.8,15.7,28.2,24.8
				c2.1,2.3,2.1,3.8,0,6c-7.5,8.2-16,15.8-25.1,22.5c-1.3,1-2.7,1.9-4,2.8l-1.6,1.1c-0.3,0.2-0.7,0.4-0.9,0.4l-0.2,0.1L621.3,425.1z
				 M635.4,401.2L635.4,401.2c-0.6,4.2-1.6,8.2-3,12.2c8.2-6.2,15.9-13.1,22.7-20.6c-6.9-7.4-14.5-14.3-22.7-20.6
				c1,2.7,1.7,5.5,2.3,8.3c0.8,4,1.2,7.8,1.2,11.4l0,1.2c0,2.1,0,4.3-0.3,6.5l-0.1,0.6l0.1,0.7L635.4,401.2z"/>
		</g>
		<g>
			<linearGradient id="SVGID_141_" gradientUnits="userSpaceOnUse" x1="542.3946" y1="392.8922" x2="606.9152" y2="392.8922">
				<stop  offset="0" style="stop-color:#CC9F00"/>
				<stop  offset="1" style="stop-color:#E0CC32"/>
			</linearGradient>
			<path fill="url(#SVGID_141_)" d="M575.2,360.6c-18.4-0.3-32.6,14.5-32.8,31.8c-0.2,18.4,14.6,32.5,31.7,32.7
				c18.3,0.3,32.9-14.6,32.8-32.2C607,375.1,592.5,360.9,575.2,360.6z M582.6,390.2c-0.3,1.8-1.7,3.3-3.7,3.3
				c-1.5,0.2-2.7-0.4-3.5-1.6c-1.7-1.9-0.8-5.2,1.7-6.1C580.1,384.6,583.1,387,582.6,390.2z M589.2,387.2c-4.7,0-8.4-3.8-8.4-8.5
				c0-4.7,3.8-8.5,8.4-8.5c4.7,0,8.5,3.8,8.5,8.5C597.7,383.4,593.9,387.2,589.2,387.2z"/>
		</g>
	</g>
</g>
</svg>
